<?xml version="1.0" encoding="UTF-8"?>
<!DOCTYPE svg PUBLIC "-//W3C//DTD SVG 1.1//EN" "http://www.w3.org/Graphics/SVG/1.1/DTD/svg11.dtd">
<!-- Creator: CorelDRAW 2018 (64-Bit) -->
<svg xmlns="http://www.w3.org/2000/svg" xml:space="preserve" width="129.646mm" height="129.646mm" version="1.1" shape-rendering="geometricPrecision" text-rendering="geometricPrecision" image-rendering="optimizeQuality" fill-rule="evenodd" clip-rule="evenodd"
viewBox="0 0 81.83 81.83"
 xmlns:xlink="http://www.w3.org/1999/xlink">
 <defs>
   <radialGradient id="id0" gradientUnits="userSpaceOnUse" gradientTransform="matrix(0.999998 -0 -0 0.999998 0 0)" cx="40.96" cy="40.96" r="38.62" fx="40.96" fy="40.96">
    <stop offset="0" stop-opacity="1" stop-color="#FF7E00"/>
    <stop offset="0.580392" stop-opacity="1" stop-color="#FF7E00"/>
    <stop offset="0.94902" stop-opacity="1" stop-color="#522C00"/>
    <stop offset="1" stop-opacity="1" stop-color="#522C00"/>
   </radialGradient>
 </defs>
 <g id="Brend">
  <metadata id="CorelCorpID_0Corel-Layer"/>
  <rect fill="white" width="81.83" height="81.83"/>
  <path fill="url(#id0)" d="M22.25 2.34c0.67,0 1.21,0.54 1.21,1.21 0,0.67 -0.54,1.21 -1.21,1.21 -0.67,0 -1.21,-0.54 -1.21,-1.21 0,-0.67 0.54,-1.21 1.21,-1.21zm56.11 74.82c0.67,0 1.21,0.54 1.21,1.21 0,0.67 -0.54,1.21 -1.21,1.21 -0.56,0 -1.03,-0.38 -1.17,-0.89 -0.14,0.52 -0.61,0.89 -1.17,0.89 -0.67,0 -1.21,-0.54 -1.21,-1.21 0,-0.56 0.38,-1.03 0.89,-1.17 -0.52,-0.14 -0.89,-0.61 -0.89,-1.17 0,-0.67 0.54,-1.21 1.21,-1.21 0.67,0 1.21,0.54 1.21,1.21 0,0.56 -0.38,1.03 -0.89,1.17 0.41,0.11 0.74,0.44 0.85,0.85 0.14,-0.52 0.61,-0.89 1.17,-0.89zm-9.35 0c0.67,0 1.21,0.54 1.21,1.21 0,0.67 -0.54,1.21 -1.21,1.21 -0.56,0 -1.03,-0.38 -1.17,-0.89 -0.14,0.52 -0.61,0.89 -1.17,0.89 -0.56,0 -1.03,-0.38 -1.17,-0.89 -0.14,0.52 -0.61,0.89 -1.17,0.89 -0.67,0 -1.21,-0.54 -1.21,-1.21 0,-0.67 0.54,-1.21 1.21,-1.21 0.56,0 1.03,0.38 1.17,0.89 0.11,-0.41 0.44,-0.74 0.85,-0.85 -0.52,-0.14 -0.89,-0.61 -0.89,-1.17 0,-0.56 0.38,-1.03 0.89,-1.17 -0.52,-0.14 -0.89,-0.61 -0.89,-1.17 0,-0.67 0.54,-1.21 1.21,-1.21 0.56,0 1.03,0.38 1.17,0.89 0.11,-0.41 0.44,-0.74 0.85,-0.85 -0.52,-0.14 -0.89,-0.61 -0.89,-1.17 0,-0.56 0.38,-1.03 0.89,-1.17 -0.41,-0.11 -0.74,-0.44 -0.85,-0.85 -0.14,0.52 -0.61,0.89 -1.17,0.89 -0.56,0 -1.03,-0.38 -1.17,-0.89 -0.14,0.52 -0.61,0.89 -1.17,0.89 -0.56,0 -1.03,-0.38 -1.17,-0.89 -0.14,0.52 -0.61,0.89 -1.17,0.89 -0.56,0 -1.03,-0.38 -1.17,-0.89 -0.14,0.52 -0.61,0.89 -1.17,0.89 -0.67,0 -1.21,-0.54 -1.21,-1.21 0,-0.56 0.38,-1.03 0.89,-1.17 -0.41,-0.11 -0.74,-0.44 -0.85,-0.85 -0.14,0.52 -0.61,0.89 -1.17,0.89 -0.67,0 -1.21,-0.54 -1.21,-1.21 0,-0.56 0.38,-1.03 0.89,-1.17 -0.52,-0.14 -0.89,-0.61 -0.89,-1.17 0,-0.56 0.38,-1.03 0.89,-1.17 -0.41,-0.11 -0.74,-0.44 -0.85,-0.85 -0.14,0.52 -0.61,0.89 -1.17,0.89 -0.67,0 -1.21,-0.54 -1.21,-1.21 0,-0.56 0.38,-1.03 0.89,-1.17 -0.41,-0.11 -0.74,-0.44 -0.85,-0.85 -0.14,0.52 -0.61,0.89 -1.17,0.89 -0.56,0 -1.03,-0.38 -1.17,-0.89 -0.11,0.41 -0.44,0.74 -0.85,0.85 0.52,0.14 0.89,0.61 0.89,1.17 0,0.56 -0.38,1.03 -0.89,1.17 0.41,0.11 0.74,0.44 0.85,0.85 0.14,-0.52 0.61,-0.89 1.17,-0.89 0.67,0 1.21,0.54 1.21,1.21 0,0.67 -0.54,1.21 -1.21,1.21 -0.56,0 -1.03,-0.38 -1.17,-0.89 -0.11,0.41 -0.44,0.74 -0.85,0.85 0.52,0.14 0.89,0.61 0.89,1.17 0,0.56 -0.38,1.03 -0.89,1.17 0.52,0.14 0.89,0.61 0.89,1.17 0,0.56 -0.38,1.03 -0.89,1.17 0.52,0.14 0.89,0.61 0.89,1.17 0,0.56 -0.38,1.03 -0.89,1.17 0.52,0.14 0.89,0.61 0.89,1.17 0,0.56 -0.38,1.03 -0.89,1.17 0.52,0.14 0.89,0.61 0.89,1.17 0,0.67 -0.54,1.21 -1.21,1.21 -0.67,0 -1.21,-0.54 -1.21,-1.21 0,-0.56 0.38,-1.03 0.89,-1.17 -0.52,-0.14 -0.89,-0.61 -0.89,-1.17 0,-0.56 0.38,-1.03 0.89,-1.17 -0.52,-0.14 -0.89,-0.61 -0.89,-1.17 0,-0.56 0.38,-1.03 0.89,-1.17 -0.41,-0.11 -0.74,-0.44 -0.85,-0.85 -0.14,0.52 -0.61,0.89 -1.17,0.89 -0.67,0 -1.21,-0.54 -1.21,-1.21 0,-0.67 0.54,-1.21 1.21,-1.21 0.56,0 1.03,0.38 1.17,0.89 0.11,-0.41 0.44,-0.74 0.85,-0.85 -0.52,-0.14 -0.89,-0.61 -0.89,-1.17 0,-0.56 0.38,-1.03 0.89,-1.17 -0.41,-0.11 -0.74,-0.44 -0.85,-0.85 -0.14,0.52 -0.61,0.89 -1.17,0.89 -0.56,0 -1.03,-0.38 -1.17,-0.89 -0.11,0.41 -0.44,0.74 -0.85,0.85 0.52,0.14 0.89,0.61 0.89,1.17 0,0.67 -0.54,1.21 -1.21,1.21 -0.67,0 -1.21,-0.54 -1.21,-1.21 0,-0.56 0.38,-1.03 0.89,-1.17 -0.41,-0.11 -0.74,-0.44 -0.85,-0.85 -0.14,0.52 -0.61,0.89 -1.17,0.89 -0.67,0 -1.21,-0.54 -1.21,-1.21 0,-0.67 0.54,-1.21 1.21,-1.21 0.56,0 1.03,0.38 1.17,0.89 0.11,-0.41 0.44,-0.74 0.85,-0.85 -0.52,-0.14 -0.89,-0.61 -0.89,-1.17 0,-0.67 0.54,-1.21 1.21,-1.21 0.67,0 1.21,0.54 1.21,1.21 0,0.56 -0.38,1.03 -0.89,1.17 0.41,0.11 0.74,0.44 0.85,0.85 0.14,-0.52 0.61,-0.89 1.17,-0.89 0.56,0 1.03,0.38 1.17,0.89 0.11,-0.41 0.44,-0.74 0.85,-0.85 -0.52,-0.14 -0.89,-0.61 -0.89,-1.17 0,-0.56 0.38,-1.03 0.89,-1.17 -0.41,-0.11 -0.74,-0.44 -0.85,-0.85 -0.14,0.52 -0.61,0.89 -1.17,0.89 -0.67,0 -1.21,-0.54 -1.21,-1.21 0,-0.56 0.38,-1.03 0.89,-1.17 -0.41,-0.11 -0.74,-0.44 -0.85,-0.85 -0.14,0.52 -0.61,0.89 -1.17,0.89 -0.67,0 -1.21,-0.54 -1.21,-1.21 0,-0.56 0.38,-1.03 0.89,-1.17 -0.41,-0.11 -0.74,-0.44 -0.85,-0.85 -0.14,0.52 -0.61,0.89 -1.17,0.89 -0.67,0 -1.21,-0.54 -1.21,-1.21 0,-0.56 0.38,-1.03 0.89,-1.17 -0.52,-0.14 -0.89,-0.61 -0.89,-1.17 0,-0.67 0.54,-1.21 1.21,-1.21 0.56,0 1.03,0.38 1.17,0.89 0.14,-0.52 0.61,-0.89 1.17,-0.89 0.56,0 1.03,0.38 1.17,0.89 0.11,-0.41 0.44,-0.74 0.85,-0.85 -0.52,-0.14 -0.89,-0.61 -0.89,-1.17 0,-0.67 0.54,-1.21 1.21,-1.21 0.56,0 1.03,0.38 1.17,0.89 0.11,-0.41 0.44,-0.74 0.85,-0.85 -0.52,-0.14 -0.89,-0.61 -0.89,-1.17 0,-0.67 0.54,-1.21 1.21,-1.21 0.56,0 1.03,0.38 1.17,0.89 0.11,-0.41 0.44,-0.74 0.85,-0.85 -0.52,-0.14 -0.89,-0.61 -0.89,-1.17 0,-0.56 0.38,-1.03 0.89,-1.17 -0.41,-0.11 -0.74,-0.44 -0.85,-0.85 -0.14,0.52 -0.61,0.89 -1.17,0.89 -0.67,0 -1.21,-0.54 -1.21,-1.21 0,-0.56 0.38,-1.03 0.89,-1.17 -0.52,-0.14 -0.89,-0.61 -0.89,-1.17 0,-0.56 0.38,-1.03 0.89,-1.17 -0.52,-0.14 -0.89,-0.61 -0.89,-1.17 0,-0.67 0.54,-1.21 1.21,-1.21 0.56,0 1.03,0.38 1.17,0.89 0.11,-0.41 0.44,-0.74 0.85,-0.85 -0.52,-0.14 -0.89,-0.61 -0.89,-1.17 0,-0.67 0.54,-1.21 1.21,-1.21 0.67,0 1.21,0.54 1.21,1.21 0,0.56 -0.38,1.03 -0.89,1.17 0.41,0.11 0.74,0.44 0.85,0.85 0.14,-0.52 0.61,-0.89 1.17,-0.89 0.56,0 1.03,0.38 1.17,0.89 0.14,-0.52 0.61,-0.89 1.17,-0.89 0.56,0 1.03,0.38 1.17,0.89 0.14,-0.52 0.61,-0.89 1.17,-0.89 0.56,0 1.03,0.38 1.17,0.89 0.11,-0.41 0.44,-0.74 0.85,-0.85 -0.52,-0.14 -0.89,-0.61 -0.89,-1.17 0,-0.56 0.38,-1.03 0.89,-1.17 -0.52,-0.14 -0.89,-0.61 -0.89,-1.17 0,-0.56 0.38,-1.03 0.89,-1.17 -0.41,-0.11 -0.74,-0.44 -0.85,-0.85 -0.14,0.52 -0.61,0.89 -1.17,0.89 -0.56,0 -1.03,-0.38 -1.17,-0.89 -0.14,0.52 -0.61,0.89 -1.17,0.89 -0.56,0 -1.03,-0.38 -1.17,-0.89 -0.11,0.41 -0.44,0.74 -0.85,0.85 0.52,0.14 0.89,0.61 0.89,1.17 0,0.67 -0.54,1.21 -1.21,1.21 -0.67,0 -1.21,-0.54 -1.21,-1.21 0,-0.56 0.38,-1.03 0.89,-1.17 -0.52,-0.14 -0.89,-0.61 -0.89,-1.17 0,-0.56 0.38,-1.03 0.89,-1.17 -0.41,-0.11 -0.74,-0.44 -0.85,-0.85 -0.14,0.52 -0.61,0.89 -1.17,0.89 -0.67,0 -1.21,-0.54 -1.21,-1.21 0,-0.67 0.54,-1.21 1.21,-1.21 0.56,0 1.03,0.38 1.17,0.89 0.11,-0.41 0.44,-0.74 0.85,-0.85 -0.52,-0.14 -0.89,-0.61 -0.89,-1.17 0,-0.67 0.54,-1.21 1.21,-1.21 0.67,0 1.21,0.54 1.21,1.21 0,0.56 -0.38,1.03 -0.89,1.17 0.52,0.14 0.89,0.61 0.89,1.17 0,0.56 -0.38,1.03 -0.89,1.17 0.41,0.11 0.74,0.44 0.85,0.85 0.14,-0.52 0.61,-0.89 1.17,-0.89 0.56,0 1.03,0.38 1.17,0.89 0.11,-0.41 0.44,-0.74 0.85,-0.85 -0.52,-0.14 -0.89,-0.61 -0.89,-1.17 0,-0.67 0.54,-1.21 1.21,-1.21 0.67,0 1.21,0.54 1.21,1.21 0,0.56 -0.38,1.03 -0.89,1.17 0.41,0.11 0.74,0.44 0.85,0.85 0.14,-0.52 0.61,-0.89 1.17,-0.89 0.56,0 1.03,0.38 1.17,0.89 0.11,-0.41 0.44,-0.74 0.85,-0.85 -0.52,-0.14 -0.89,-0.61 -0.89,-1.17 0,-0.67 0.54,-1.21 1.21,-1.21 0.67,0 1.21,0.54 1.21,1.21 0,0.56 -0.38,1.03 -0.89,1.17 0.52,0.14 0.89,0.61 0.89,1.17 0,0.56 -0.38,1.03 -0.89,1.17 0.52,0.14 0.89,0.61 0.89,1.17 0,0.56 -0.38,1.03 -0.89,1.17 0.41,0.11 0.74,0.44 0.85,0.85 0.14,-0.52 0.61,-0.89 1.17,-0.89 0.56,0 1.03,0.38 1.17,0.89 0.14,-0.52 0.61,-0.89 1.17,-0.89 0.67,0 1.21,0.54 1.21,1.21 0,0.67 -0.54,1.21 -1.21,1.21 -0.56,0 -1.03,-0.38 -1.17,-0.89 -0.11,0.41 -0.44,0.74 -0.85,0.85 0.52,0.14 0.89,0.61 0.89,1.17 0,0.56 -0.38,1.03 -0.89,1.17 0.52,0.14 0.89,0.61 0.89,1.17 0,0.67 -0.54,1.21 -1.21,1.21 -0.56,0 -1.03,-0.38 -1.17,-0.89 -0.11,0.41 -0.44,0.74 -0.85,0.85 0.52,0.14 0.89,0.61 0.89,1.17 0,0.56 -0.38,1.03 -0.89,1.17 0.41,0.11 0.74,0.44 0.85,0.85 0.14,-0.52 0.61,-0.89 1.17,-0.89 0.56,0 1.03,0.38 1.17,0.89 0.14,-0.52 0.61,-0.89 1.17,-0.89 0.67,0 1.21,0.54 1.21,1.21 0,0.56 -0.38,1.03 -0.89,1.17 0.52,0.14 0.89,0.61 0.89,1.17 0,0.67 -0.54,1.21 -1.21,1.21 -0.56,0 -1.03,-0.38 -1.17,-0.89 -0.14,0.52 -0.61,0.89 -1.17,0.89 -0.56,0 -1.03,-0.38 -1.17,-0.89 -0.11,0.41 -0.44,0.74 -0.85,0.85 0.52,0.14 0.89,0.61 0.89,1.17 0,0.56 -0.38,1.03 -0.89,1.17 0.52,0.14 0.89,0.61 0.89,1.17 0,0.56 -0.38,1.03 -0.89,1.17 0.41,0.11 0.74,0.44 0.85,0.85 0.14,-0.52 0.61,-0.89 1.17,-0.89 0.67,0 1.21,0.54 1.21,1.21 0,0.56 -0.38,1.03 -0.89,1.17 0.52,0.14 0.89,0.61 0.89,1.17 0,0.56 -0.38,1.03 -0.89,1.17 0.41,0.11 0.74,0.44 0.85,0.85 0.14,-0.52 0.61,-0.89 1.17,-0.89 0.67,0 1.21,0.54 1.21,1.21 0,0.56 -0.38,1.03 -0.89,1.17 0.41,0.11 0.74,0.44 0.85,0.85 0.14,-0.52 0.61,-0.89 1.17,-0.89 0.67,0 1.21,0.54 1.21,1.21 0,0.56 -0.38,1.03 -0.89,1.17 0.52,0.14 0.89,0.61 0.89,1.17 0,0.67 -0.54,1.21 -1.21,1.21 -0.56,0 -1.03,-0.38 -1.17,-0.89 -0.11,0.41 -0.44,0.74 -0.85,0.85 0.52,0.14 0.89,0.61 0.89,1.17 0,0.56 -0.38,1.03 -0.89,1.17 0.52,0.14 0.89,0.61 0.89,1.17 0,0.56 -0.38,1.03 -0.89,1.17 0.52,0.14 0.89,0.61 0.89,1.17 0,0.56 -0.38,1.03 -0.89,1.17 0.41,0.11 0.74,0.44 0.85,0.85 0.14,-0.52 0.61,-0.89 1.17,-0.89 0.56,0 1.03,0.38 1.17,0.89 0.14,-0.52 0.61,-0.89 1.17,-0.89 0.67,0 1.21,0.54 1.21,1.21 0,0.67 -0.54,1.21 -1.21,1.21 -0.56,0 -1.03,-0.38 -1.17,-0.89 -0.14,0.52 -0.61,0.89 -1.17,0.89 -0.56,0 -1.03,-0.38 -1.17,-0.89 -0.14,0.52 -0.61,0.89 -1.17,0.89 -0.56,0 -1.03,-0.38 -1.17,-0.89 -0.11,0.41 -0.44,0.74 -0.85,0.85 0.52,0.14 0.89,0.61 0.89,1.17 0,0.56 -0.38,1.03 -0.89,1.17 0.41,0.11 0.74,0.44 0.85,0.85 0.14,-0.52 0.61,-0.89 1.17,-0.89zm-9.04 0.04c0.52,0.14 0.89,0.61 0.89,1.17 0,0.67 -0.54,1.21 -1.21,1.21 -0.56,0 -1.03,-0.38 -1.17,-0.89 -0.14,0.52 -0.61,0.89 -1.17,0.89 -0.56,0 -1.03,-0.38 -1.17,-0.89 -0.14,0.52 -0.61,0.89 -1.17,0.89 -0.56,0 -1.03,-0.38 -1.17,-0.89 -0.14,0.52 -0.61,0.89 -1.17,0.89 -0.67,0 -1.21,-0.54 -1.21,-1.21 0,-0.67 0.54,-1.21 1.21,-1.21 0.56,0 1.03,0.38 1.17,0.89 0.11,-0.41 0.44,-0.74 0.85,-0.85 -0.52,-0.14 -0.89,-0.61 -0.89,-1.17 0,-0.56 0.38,-1.03 0.89,-1.17 -0.52,-0.14 -0.89,-0.61 -0.89,-1.17 0,-0.67 0.54,-1.21 1.21,-1.21 0.56,0 1.03,0.38 1.17,0.89 0.14,-0.52 0.61,-0.89 1.17,-0.89 0.56,0 1.03,0.38 1.17,0.89 0.14,-0.52 0.61,-0.89 1.17,-0.89 0.56,0 1.03,0.38 1.17,0.89 0.14,-0.52 0.61,-0.89 1.17,-0.89 0.67,0 1.21,0.54 1.21,1.21 0,0.67 -0.54,1.21 -1.21,1.21 -0.56,0 -1.03,-0.38 -1.17,-0.89 -0.11,0.41 -0.44,0.74 -0.85,0.85 0.52,0.14 0.89,0.61 0.89,1.17 0,0.56 -0.38,1.03 -0.89,1.17zm-1.48 0.85c0.11,-0.41 0.44,-0.74 0.85,-0.85 -0.41,-0.11 -0.74,-0.44 -0.85,-0.85 -0.11,0.41 -0.44,0.74 -0.85,0.85 0.41,0.11 0.74,0.44 0.85,0.85zm-2.34 0c0.11,-0.41 0.44,-0.74 0.85,-0.85 -0.41,-0.11 -0.74,-0.44 -0.85,-0.85 -0.11,0.41 -0.44,0.74 -0.85,0.85 0.41,0.11 0.74,0.44 0.85,0.85zm-12.86 -0.89c0.67,0 1.21,0.54 1.21,1.21 0,0.67 -0.54,1.21 -1.21,1.21 -0.56,0 -1.03,-0.38 -1.17,-0.89 -0.14,0.52 -0.61,0.89 -1.17,0.89 -0.67,0 -1.21,-0.54 -1.21,-1.21 0,-0.67 0.54,-1.21 1.21,-1.21 0.56,0 1.03,0.38 1.17,0.89 0.14,-0.52 0.61,-0.89 1.17,-0.89zm-11.37 0.04c0.52,0.14 0.89,0.61 0.89,1.17 0,0.67 -0.54,1.21 -1.21,1.21 -0.67,0 -1.21,-0.54 -1.21,-1.21 0,-0.56 0.38,-1.03 0.89,-1.17 -0.52,-0.14 -0.89,-0.61 -0.89,-1.17 0,-0.56 0.38,-1.03 0.89,-1.17 -0.52,-0.14 -0.89,-0.61 -0.89,-1.17 0,-0.56 0.38,-1.03 0.89,-1.17 -0.41,-0.11 -0.74,-0.44 -0.85,-0.85 -0.14,0.52 -0.61,0.89 -1.17,0.89 -0.67,0 -1.21,-0.54 -1.21,-1.21 0,-0.67 0.54,-1.21 1.21,-1.21 0.56,0 1.03,0.38 1.17,0.89 0.11,-0.41 0.44,-0.74 0.85,-0.85 -0.52,-0.14 -0.89,-0.61 -0.89,-1.17 0,-0.56 0.38,-1.03 0.89,-1.17 -0.41,-0.11 -0.74,-0.44 -0.85,-0.85 -0.14,0.52 -0.61,0.89 -1.17,0.89 -0.67,0 -1.21,-0.54 -1.21,-1.21 0,-0.56 0.38,-1.03 0.89,-1.17 -0.52,-0.14 -0.89,-0.61 -0.89,-1.17 0,-0.67 0.54,-1.21 1.21,-1.21 0.56,0 1.03,0.38 1.17,0.89 0.14,-0.52 0.61,-0.89 1.17,-0.89 0.67,0 1.21,0.54 1.21,1.21 0,0.56 -0.38,1.03 -0.89,1.17 0.41,0.11 0.74,0.44 0.85,0.85 0.14,-0.52 0.61,-0.89 1.17,-0.89 0.56,0 1.03,0.38 1.17,0.89 0.11,-0.41 0.44,-0.74 0.85,-0.85 -0.52,-0.14 -0.89,-0.61 -0.89,-1.17 0,-0.56 0.38,-1.03 0.89,-1.17 -0.41,-0.11 -0.74,-0.44 -0.85,-0.85 -0.14,0.52 -0.61,0.89 -1.17,0.89 -0.67,0 -1.21,-0.54 -1.21,-1.21 0,-0.67 0.54,-1.21 1.21,-1.21 0.56,0 1.03,0.38 1.17,0.89 0.11,-0.41 0.44,-0.74 0.85,-0.85 -0.52,-0.14 -0.89,-0.61 -0.89,-1.17 0,-0.56 0.38,-1.03 0.89,-1.17 -0.52,-0.14 -0.89,-0.61 -0.89,-1.17 0,-0.56 0.38,-1.03 0.89,-1.17 -0.41,-0.11 -0.74,-0.44 -0.85,-0.85 -0.14,0.52 -0.61,0.89 -1.17,0.89 -0.56,0 -1.03,-0.38 -1.17,-0.89 -0.11,0.41 -0.44,0.74 -0.85,0.85 0.52,0.14 0.89,0.61 0.89,1.17 0,0.67 -0.54,1.21 -1.21,1.21 -0.56,0 -1.03,-0.38 -1.17,-0.89 -0.14,0.52 -0.61,0.89 -1.17,0.89 -0.56,0 -1.03,-0.38 -1.17,-0.89 -0.14,0.52 -0.61,0.89 -1.17,0.89 -0.67,0 -1.21,-0.54 -1.21,-1.21 0,-0.67 0.54,-1.21 1.21,-1.21 0.56,0 1.03,0.38 1.17,0.89 0.14,-0.52 0.61,-0.89 1.17,-0.89 0.56,0 1.03,0.38 1.17,0.89 0.11,-0.41 0.44,-0.74 0.85,-0.85 -0.52,-0.14 -0.89,-0.61 -0.89,-1.17 0,-0.67 0.54,-1.21 1.21,-1.21 0.56,0 1.03,0.38 1.17,0.89 0.11,-0.41 0.44,-0.74 0.85,-0.85 -0.52,-0.14 -0.89,-0.61 -0.89,-1.17 0,-0.56 0.38,-1.03 0.89,-1.17 -0.41,-0.11 -0.74,-0.44 -0.85,-0.85 -0.14,0.52 -0.61,0.89 -1.17,0.89 -0.67,0 -1.21,-0.54 -1.21,-1.21 0,-0.67 0.54,-1.21 1.21,-1.21 0.56,0 1.03,0.38 1.17,0.89 0.14,-0.52 0.61,-0.89 1.17,-0.89 0.67,0 1.21,0.54 1.21,1.21 0,0.56 -0.38,1.03 -0.89,1.17 0.41,0.11 0.74,0.44 0.85,0.85 0.14,-0.52 0.61,-0.89 1.17,-0.89 0.56,0 1.03,0.38 1.17,0.89 0.14,-0.52 0.61,-0.89 1.17,-0.89 0.67,0 1.21,0.54 1.21,1.21 0,0.67 -0.54,1.21 -1.21,1.21 -0.56,0 -1.03,-0.38 -1.17,-0.89 -0.11,0.41 -0.44,0.74 -0.85,0.85 0.52,0.14 0.89,0.61 0.89,1.17 0,0.56 -0.38,1.03 -0.89,1.17 0.41,0.11 0.74,0.44 0.85,0.85 0.14,-0.52 0.61,-0.89 1.17,-0.89 0.67,0 1.21,0.54 1.21,1.21 0,0.67 -0.54,1.21 -1.21,1.21 -0.56,0 -1.03,-0.38 -1.17,-0.89 -0.11,0.41 -0.44,0.74 -0.85,0.85 0.52,0.14 0.89,0.61 0.89,1.17 0,0.56 -0.38,1.03 -0.89,1.17 0.41,0.11 0.74,0.44 0.85,0.85 0.14,-0.52 0.61,-0.89 1.17,-0.89 0.56,0 1.03,0.38 1.17,0.89 0.14,-0.52 0.61,-0.89 1.17,-0.89 0.67,0 1.21,0.54 1.21,1.21 0,0.67 -0.54,1.21 -1.21,1.21 -0.56,0 -1.03,-0.38 -1.17,-0.89 -0.14,0.52 -0.61,0.89 -1.17,0.89 -0.56,0 -1.03,-0.38 -1.17,-0.89 -0.11,0.41 -0.44,0.74 -0.85,0.85 0.52,0.14 0.89,0.61 0.89,1.17 0,0.56 -0.38,1.03 -0.89,1.17 0.41,0.11 0.74,0.44 0.85,0.85 0.14,-0.52 0.61,-0.89 1.17,-0.89 0.56,0 1.03,0.38 1.17,0.89 0.14,-0.52 0.61,-0.89 1.17,-0.89 0.67,0 1.21,0.54 1.21,1.21 0,0.56 -0.38,1.03 -0.89,1.17 0.52,0.14 0.89,0.61 0.89,1.17 0,0.56 -0.38,1.03 -0.89,1.17 0.41,0.11 0.74,0.44 0.85,0.85 0.14,-0.52 0.61,-0.89 1.17,-0.89 0.67,0 1.21,0.54 1.21,1.21 0,0.56 -0.38,1.03 -0.89,1.17 0.41,0.11 0.74,0.44 0.85,0.85 0.14,-0.52 0.61,-0.89 1.17,-0.89 0.67,0 1.21,0.54 1.21,1.21 0,0.67 -0.54,1.21 -1.21,1.21 -0.56,0 -1.03,-0.38 -1.17,-0.89 -0.14,0.52 -0.61,0.89 -1.17,0.89 -0.67,0 -1.21,-0.54 -1.21,-1.21 0,-0.56 0.38,-1.03 0.89,-1.17 -0.41,-0.11 -0.74,-0.44 -0.85,-0.85 -0.14,0.52 -0.61,0.89 -1.17,0.89 -0.56,0 -1.03,-0.38 -1.17,-0.89 -0.11,0.41 -0.44,0.74 -0.85,0.85 0.52,0.14 0.89,0.61 0.89,1.17 0,0.67 -0.54,1.21 -1.21,1.21 -0.67,0 -1.21,-0.54 -1.21,-1.21 0,-0.56 0.38,-1.03 0.89,-1.17 -0.41,-0.11 -0.74,-0.44 -0.85,-0.85 -0.14,0.52 -0.61,0.89 -1.17,0.89 -0.67,0 -1.21,-0.54 -1.21,-1.21 0,-0.67 0.54,-1.21 1.21,-1.21 0.56,0 1.03,0.38 1.17,0.89 0.11,-0.41 0.44,-0.74 0.85,-0.85 -0.52,-0.14 -0.89,-0.61 -0.89,-1.17 0,-0.56 0.38,-1.03 0.89,-1.17 -0.41,-0.11 -0.74,-0.44 -0.85,-0.85 -0.14,0.52 -0.61,0.89 -1.17,0.89 -0.56,0 -1.03,-0.38 -1.17,-0.89 -0.11,0.41 -0.44,0.74 -0.85,0.85 0.52,0.14 0.89,0.61 0.89,1.17 0,0.67 -0.54,1.21 -1.21,1.21 -0.56,0 -1.03,-0.38 -1.17,-0.89 -0.11,0.41 -0.44,0.74 -0.85,0.85 0.52,0.14 0.89,0.61 0.89,1.17 0,0.56 -0.38,1.03 -0.89,1.17 0.52,0.14 0.89,0.61 0.89,1.17 0,0.56 -0.38,1.03 -0.89,1.17 0.52,0.14 0.89,0.61 0.89,1.17 0,0.56 -0.38,1.03 -0.89,1.17zm-7.01 0c0.52,0.14 0.89,0.61 0.89,1.17 0,0.67 -0.54,1.21 -1.21,1.21 -0.67,0 -1.21,-0.54 -1.21,-1.21 0,-0.56 0.38,-1.03 0.89,-1.17 -0.52,-0.14 -0.89,-0.61 -0.89,-1.17 0,-0.56 0.38,-1.03 0.89,-1.17 -0.41,-0.11 -0.74,-0.44 -0.85,-0.85 -0.14,0.52 -0.61,0.89 -1.17,0.89 -0.67,0 -1.21,-0.54 -1.21,-1.21 0,-0.67 0.54,-1.21 1.21,-1.21 0.56,0 1.03,0.38 1.17,0.89 0.14,-0.52 0.61,-0.89 1.17,-0.89 0.67,0 1.21,0.54 1.21,1.21 0,0.56 -0.38,1.03 -0.89,1.17 0.52,0.14 0.89,0.61 0.89,1.17 0,0.56 -0.38,1.03 -0.89,1.17zm33.59 -1.49c0.11,-0.41 0.44,-0.74 0.85,-0.85 -0.41,-0.11 -0.74,-0.44 -0.85,-0.85 -0.11,0.41 -0.44,0.74 -0.85,0.85 0.41,0.11 0.74,0.44 0.85,0.85zm-2.34 0c0.11,-0.41 0.44,-0.74 0.85,-0.85 -0.41,-0.11 -0.74,-0.44 -0.85,-0.85 -0.11,0.41 -0.44,0.74 -0.85,0.85 0.41,0.11 0.74,0.44 0.85,0.85zm-19.87 -0.89c0.67,0 1.21,0.54 1.21,1.21 0,0.67 -0.54,1.21 -1.21,1.21 -0.67,0 -1.21,-0.54 -1.21,-1.21 0,-0.67 0.54,-1.21 1.21,-1.21zm42.08 -2.34c0.67,0 1.21,0.54 1.21,1.21 0,0.67 -0.54,1.21 -1.21,1.21 -0.67,0 -1.21,-0.54 -1.21,-1.21 0,-0.67 0.54,-1.21 1.21,-1.21zm-38.58 -1.44c0.11,-0.41 0.44,-0.74 0.85,-0.85 -0.41,-0.11 -0.74,-0.44 -0.85,-0.85 -0.11,0.41 -0.44,0.74 -0.85,0.85 0.41,0.11 0.74,0.44 0.85,0.85zm36.24 -3.23c0.67,0 1.21,0.54 1.21,1.21 0,0.67 -0.54,1.21 -1.21,1.21 -0.67,0 -1.21,-0.54 -1.21,-1.21 0,-0.67 0.54,-1.21 1.21,-1.21zm-8.18 0.89c0.11,-0.41 0.44,-0.74 0.85,-0.85 -0.52,-0.14 -0.89,-0.61 -0.89,-1.17 0,-0.56 0.38,-1.03 0.89,-1.17 -0.52,-0.14 -0.89,-0.61 -0.89,-1.17 0,-0.56 0.38,-1.03 0.89,-1.17 -0.52,-0.14 -0.89,-0.61 -0.89,-1.17 0,-0.56 0.38,-1.03 0.89,-1.17 -0.41,-0.11 -0.74,-0.44 -0.85,-0.85 -0.14,0.52 -0.61,0.89 -1.17,0.89 -0.56,0 -1.03,-0.38 -1.17,-0.89 -0.14,0.52 -0.61,0.89 -1.17,0.89 -0.56,0 -1.03,-0.38 -1.17,-0.89 -0.14,0.52 -0.61,0.89 -1.17,0.89 -0.56,0 -1.03,-0.38 -1.17,-0.89 -0.11,0.41 -0.44,0.74 -0.85,0.85 0.52,0.14 0.89,0.61 0.89,1.17 0,0.56 -0.38,1.03 -0.89,1.17 0.52,0.14 0.89,0.61 0.89,1.17 0,0.56 -0.38,1.03 -0.89,1.17 0.52,0.14 0.89,0.61 0.89,1.17 0,0.56 -0.38,1.03 -0.89,1.17 0.41,0.11 0.74,0.44 0.85,0.85 0.14,-0.52 0.61,-0.89 1.17,-0.89 0.56,0 1.03,0.38 1.17,0.89 0.14,-0.52 0.61,-0.89 1.17,-0.89 0.56,0 1.03,0.38 1.17,0.89 0.14,-0.52 0.61,-0.89 1.17,-0.89 0.56,0 1.03,0.38 1.17,0.89zm-28.06 -0c0.11,-0.41 0.44,-0.74 0.85,-0.85 -0.41,-0.11 -0.74,-0.44 -0.85,-0.85 -0.11,0.41 -0.44,0.74 -0.85,0.85 0.41,0.11 0.74,0.44 0.85,0.85zm-7.01 0c0.11,-0.41 0.44,-0.74 0.85,-0.85 -0.41,-0.11 -0.74,-0.44 -0.85,-0.85 -0.11,0.41 -0.44,0.74 -0.85,0.85 0.41,0.11 0.74,0.44 0.85,0.85zm-5.85 -0.89c0.67,0 1.21,0.54 1.21,1.21 0,0.67 -0.54,1.21 -1.21,1.21 -0.67,0 -1.21,-0.54 -1.21,-1.21 0,-0.67 0.54,-1.21 1.21,-1.21zm-4.36 0.04c0.52,0.14 0.89,0.61 0.89,1.17 0,0.67 -0.54,1.21 -1.21,1.21 -0.67,0 -1.21,-0.54 -1.21,-1.21 0,-0.56 0.38,-1.03 0.89,-1.17 -0.52,-0.14 -0.89,-0.61 -0.89,-1.17 0,-0.67 0.54,-1.21 1.21,-1.21 0.67,0 1.21,0.54 1.21,1.21 0,0.56 -0.38,1.03 -0.89,1.17zm56.11 -2.34c0.52,0.14 0.89,0.61 0.89,1.17 0,0.67 -0.54,1.21 -1.21,1.21 -0.67,0 -1.21,-0.54 -1.21,-1.21 0,-0.56 0.38,-1.03 0.89,-1.17 -0.41,-0.11 -0.74,-0.44 -0.85,-0.85 -0.14,0.52 -0.61,0.89 -1.17,0.89 -0.67,0 -1.21,-0.54 -1.21,-1.21 0,-0.67 0.54,-1.21 1.21,-1.21 0.56,0 1.03,0.38 1.17,0.89 0.11,-0.41 0.44,-0.74 0.85,-0.85 -0.52,-0.14 -0.89,-0.61 -0.89,-1.17 0,-0.56 0.38,-1.03 0.89,-1.17 -0.41,-0.11 -0.74,-0.44 -0.85,-0.85 -0.14,0.52 -0.61,0.89 -1.17,0.89 -0.67,0 -1.21,-0.54 -1.21,-1.21 0,-0.67 0.54,-1.21 1.21,-1.21 0.56,0 1.03,0.38 1.17,0.89 0.14,-0.52 0.61,-0.89 1.17,-0.89 0.67,0 1.21,0.54 1.21,1.21 0,0.56 -0.38,1.03 -0.89,1.17 0.52,0.14 0.89,0.61 0.89,1.17 0,0.56 -0.38,1.03 -0.89,1.17 0.52,0.14 0.89,0.61 0.89,1.17 0,0.56 -0.38,1.03 -0.89,1.17zm-20.19 0.85c0.11,-0.41 0.44,-0.74 0.85,-0.85 -0.41,-0.11 -0.74,-0.44 -0.85,-0.85 -0.11,0.41 -0.44,0.74 -0.85,0.85 0.41,0.11 0.74,0.44 0.85,0.85zm-28.06 0c0.11,-0.41 0.44,-0.74 0.85,-0.85 -0.41,-0.11 -0.74,-0.44 -0.85,-0.85 -0.11,0.41 -0.44,0.74 -0.85,0.85 0.41,0.11 0.74,0.44 0.85,0.85zm39.75 -2.34c0.11,-0.41 0.44,-0.74 0.85,-0.85 -0.41,-0.11 -0.74,-0.44 -0.85,-0.85 -0.11,0.41 -0.44,0.74 -0.85,0.85 0.41,0.11 0.74,0.44 0.85,0.85zm-5.85 -0.89c0.67,0 1.21,0.54 1.21,1.21 0,0.67 -0.54,1.21 -1.21,1.21 -0.67,0 -1.21,-0.54 -1.21,-1.21 0,-0.67 0.54,-1.21 1.21,-1.21zm-5.84 0.89c0.11,-0.41 0.44,-0.74 0.85,-0.85 -0.41,-0.11 -0.74,-0.44 -0.85,-0.85 -0.11,0.41 -0.44,0.74 -0.85,0.85 0.41,0.11 0.74,0.44 0.85,0.85zm-33.59 -0.85c0.52,0.14 0.89,0.61 0.89,1.17 0,0.67 -0.54,1.21 -1.21,1.21 -0.67,0 -1.21,-0.54 -1.21,-1.21 0,-0.56 0.38,-1.03 0.89,-1.17 -0.41,-0.11 -0.74,-0.44 -0.85,-0.85 -0.14,0.52 -0.61,0.89 -1.17,0.89 -0.67,0 -1.21,-0.54 -1.21,-1.21 0,-0.56 0.38,-1.03 0.89,-1.17 -0.52,-0.14 -0.89,-0.61 -0.89,-1.17 0,-0.67 0.54,-1.21 1.21,-1.21 0.67,0 1.21,0.54 1.21,1.21 0,0.56 -0.38,1.03 -0.89,1.17 0.41,0.11 0.74,0.44 0.85,0.85 0.14,-0.52 0.61,-0.89 1.17,-0.89 0.56,0 1.03,0.38 1.17,0.89 0.14,-0.52 0.61,-0.89 1.17,-0.89 0.67,0 1.21,0.54 1.21,1.21 0,0.67 -0.54,1.21 -1.21,1.21 -0.56,0 -1.03,-0.38 -1.17,-0.89 -0.11,0.41 -0.44,0.74 -0.85,0.85zm33.59 -1.48c0.11,-0.41 0.44,-0.74 0.85,-0.85 -0.52,-0.14 -0.89,-0.61 -0.89,-1.17 0,-0.67 0.54,-1.21 1.21,-1.21 0.56,0 1.03,0.38 1.17,0.89 0.11,-0.41 0.44,-0.74 0.85,-0.85 -0.52,-0.14 -0.89,-0.61 -0.89,-1.17 0,-0.67 0.54,-1.21 1.21,-1.21 0.67,0 1.21,0.54 1.21,1.21 0,0.56 -0.38,1.03 -0.89,1.17 0.41,0.11 0.74,0.44 0.85,0.85 0.14,-0.52 0.61,-0.89 1.17,-0.89 0.56,0 1.03,0.38 1.17,0.89 0.11,-0.41 0.44,-0.74 0.85,-0.85 -0.52,-0.14 -0.89,-0.61 -0.89,-1.17 0,-0.56 0.38,-1.03 0.89,-1.17 -0.41,-0.11 -0.74,-0.44 -0.85,-0.85 -0.14,0.52 -0.61,0.89 -1.17,0.89 -0.67,0 -1.21,-0.54 -1.21,-1.21 0,-0.56 0.38,-1.03 0.89,-1.17 -0.52,-0.14 -0.89,-0.61 -0.89,-1.17 0,-0.56 0.38,-1.03 0.89,-1.17 -0.52,-0.14 -0.89,-0.61 -0.89,-1.17 0,-0.56 0.38,-1.03 0.89,-1.17 -0.41,-0.11 -0.74,-0.44 -0.85,-0.85 -0.14,0.52 -0.61,0.89 -1.17,0.89 -0.67,0 -1.21,-0.54 -1.21,-1.21 0,-0.56 0.38,-1.03 0.89,-1.17 -0.52,-0.14 -0.89,-0.61 -0.89,-1.17 0,-0.56 0.38,-1.03 0.89,-1.17 -0.52,-0.14 -0.89,-0.61 -0.89,-1.17 0,-0.56 0.38,-1.03 0.89,-1.17 -0.52,-0.14 -0.89,-0.61 -0.89,-1.17 0,-0.56 0.38,-1.03 0.89,-1.17 -0.41,-0.11 -0.74,-0.44 -0.85,-0.85 -0.14,0.52 -0.61,0.89 -1.17,0.89 -0.56,0 -1.03,-0.38 -1.17,-0.89 -0.14,0.52 -0.61,0.89 -1.17,0.89 -0.56,0 -1.03,-0.38 -1.17,-0.89 -0.11,0.41 -0.44,0.74 -0.85,0.85 0.52,0.14 0.89,0.61 0.89,1.17 0,0.67 -0.54,1.21 -1.21,1.21 -0.56,0 -1.03,-0.38 -1.17,-0.89 -0.11,0.41 -0.44,0.74 -0.85,0.85 0.52,0.14 0.89,0.61 0.89,1.17 0,0.56 -0.38,1.03 -0.89,1.17 0.52,0.14 0.89,0.61 0.89,1.17 0,0.56 -0.38,1.03 -0.89,1.17 0.41,0.11 0.74,0.44 0.85,0.85 0.14,-0.52 0.61,-0.89 1.17,-0.89 0.67,0 1.21,0.54 1.21,1.21 0,0.67 -0.54,1.21 -1.21,1.21 -0.56,0 -1.03,-0.38 -1.17,-0.89 -0.11,0.41 -0.44,0.74 -0.85,0.85 0.52,0.14 0.89,0.61 0.89,1.17 0,0.67 -0.54,1.21 -1.21,1.21 -0.56,0 -1.03,-0.38 -1.17,-0.89 -0.14,0.52 -0.61,0.89 -1.17,0.89 -0.56,0 -1.03,-0.38 -1.17,-0.89 -0.11,0.41 -0.44,0.74 -0.85,0.85 0.52,0.14 0.89,0.61 0.89,1.17 0,0.56 -0.38,1.03 -0.89,1.17 0.52,0.14 0.89,0.61 0.89,1.17 0,0.56 -0.38,1.03 -0.89,1.17 0.52,0.14 0.89,0.61 0.89,1.17 0,0.56 -0.38,1.03 -0.89,1.17 0.41,0.11 0.74,0.44 0.85,0.85 0.14,-0.52 0.61,-0.89 1.17,-0.89 0.56,0 1.03,0.38 1.17,0.89 0.11,-0.41 0.44,-0.74 0.85,-0.85 -0.52,-0.14 -0.89,-0.61 -0.89,-1.17 0,-0.56 0.38,-1.03 0.89,-1.17 -0.52,-0.14 -0.89,-0.61 -0.89,-1.17 0,-0.67 0.54,-1.21 1.21,-1.21 0.67,0 1.21,0.54 1.21,1.21 0,0.56 -0.38,1.03 -0.89,1.17 0.41,0.11 0.74,0.44 0.85,0.85 0.14,-0.52 0.61,-0.89 1.17,-0.89 0.67,0 1.21,0.54 1.21,1.21 0,0.56 -0.38,1.03 -0.89,1.17 0.52,0.14 0.89,0.61 0.89,1.17 0,0.56 -0.38,1.03 -0.89,1.17 0.41,0.11 0.74,0.44 0.85,0.85 0.14,-0.52 0.61,-0.89 1.17,-0.89 0.56,0 1.03,0.38 1.17,0.89zm-4.68 -2.34c0.11,-0.41 0.44,-0.74 0.85,-0.85 -0.41,-0.11 -0.74,-0.44 -0.85,-0.85 -0.11,0.41 -0.44,0.74 -0.85,0.85 0.41,0.11 0.74,0.44 0.85,0.85zm-36.24 -0.89c0.67,0 1.21,0.54 1.21,1.21 0,0.67 -0.54,1.21 -1.21,1.21 -0.67,0 -1.21,-0.54 -1.21,-1.21 0,-0.67 0.54,-1.21 1.21,-1.21zm-4.36 0.04c0.52,0.14 0.89,0.61 0.89,1.17 0,0.67 -0.54,1.21 -1.21,1.21 -0.56,0 -1.03,-0.38 -1.17,-0.89 -0.14,0.52 -0.61,0.89 -1.17,0.89 -0.56,0 -1.03,-0.38 -1.17,-0.89 -0.14,0.52 -0.61,0.89 -1.17,0.89 -0.67,0 -1.21,-0.54 -1.21,-1.21 0,-0.67 0.54,-1.21 1.21,-1.21 0.56,0 1.03,0.38 1.17,0.89 0.11,-0.41 0.44,-0.74 0.85,-0.85 -0.52,-0.14 -0.89,-0.61 -0.89,-1.17 0,-0.67 0.54,-1.21 1.21,-1.21 0.56,0 1.03,0.38 1.17,0.89 0.11,-0.41 0.44,-0.74 0.85,-0.85 -0.52,-0.14 -0.89,-0.61 -0.89,-1.17 0,-0.67 0.54,-1.21 1.21,-1.21 0.56,0 1.03,0.38 1.17,0.89 0.11,-0.41 0.44,-0.74 0.85,-0.85 -0.52,-0.14 -0.89,-0.61 -0.89,-1.17 0,-0.56 0.38,-1.03 0.89,-1.17 -0.41,-0.11 -0.74,-0.44 -0.85,-0.85 -0.14,0.52 -0.61,0.89 -1.17,0.89 -0.56,0 -1.03,-0.38 -1.17,-0.89 -0.14,0.52 -0.61,0.89 -1.17,0.89 -0.67,0 -1.21,-0.54 -1.21,-1.21 0,-0.56 0.38,-1.03 0.89,-1.17 -0.41,-0.11 -0.74,-0.44 -0.85,-0.85 -0.14,0.52 -0.61,0.89 -1.17,0.89 -0.67,0 -1.21,-0.54 -1.21,-1.21 0,-0.67 0.54,-1.21 1.21,-1.21 0.56,0 1.03,0.38 1.17,0.89 0.11,-0.41 0.44,-0.74 0.85,-0.85 -0.52,-0.14 -0.89,-0.61 -0.89,-1.17 0,-0.67 0.54,-1.21 1.21,-1.21 0.67,0 1.21,0.54 1.21,1.21 0,0.56 -0.38,1.03 -0.89,1.17 0.52,0.14 0.89,0.61 0.89,1.17 0,0.56 -0.38,1.03 -0.89,1.17 0.41,0.11 0.74,0.44 0.85,0.85 0.14,-0.52 0.61,-0.89 1.17,-0.89 0.56,0 1.03,0.38 1.17,0.89 0.14,-0.52 0.61,-0.89 1.17,-0.89 0.56,0 1.03,0.38 1.17,0.89 0.14,-0.52 0.61,-0.89 1.17,-0.89 0.56,0 1.03,0.38 1.17,0.89 0.14,-0.52 0.61,-0.89 1.17,-0.89 0.56,0 1.03,0.38 1.17,0.89 0.11,-0.41 0.44,-0.74 0.85,-0.85 -0.52,-0.14 -0.89,-0.61 -0.89,-1.17 0,-0.56 0.38,-1.03 0.89,-1.17 -0.41,-0.11 -0.74,-0.44 -0.85,-0.85 -0.14,0.52 -0.61,0.89 -1.17,0.89 -0.56,0 -1.03,-0.38 -1.17,-0.89 -0.14,0.52 -0.61,0.89 -1.17,0.89 -0.56,0 -1.03,-0.38 -1.17,-0.89 -0.14,0.52 -0.61,0.89 -1.17,0.89 -0.67,0 -1.21,-0.54 -1.21,-1.21 0,-0.67 0.54,-1.21 1.21,-1.21 0.56,0 1.03,0.38 1.17,0.89 0.14,-0.52 0.61,-0.89 1.17,-0.89 0.56,0 1.03,0.38 1.17,0.89 0.11,-0.41 0.44,-0.74 0.85,-0.85 -0.52,-0.14 -0.89,-0.61 -0.89,-1.17 0,-0.56 0.38,-1.03 0.89,-1.17 -0.41,-0.11 -0.74,-0.44 -0.85,-0.85 -0.14,0.52 -0.61,0.89 -1.17,0.89 -0.67,0 -1.21,-0.54 -1.21,-1.21 0,-0.67 0.54,-1.21 1.21,-1.21 0.56,0 1.03,0.38 1.17,0.89 0.11,-0.41 0.44,-0.74 0.85,-0.85 -0.52,-0.14 -0.89,-0.61 -0.89,-1.17 0,-0.56 0.38,-1.03 0.89,-1.17 -0.41,-0.11 -0.74,-0.44 -0.85,-0.85 -0.14,0.52 -0.61,0.89 -1.17,0.89 -0.56,0 -1.03,-0.38 -1.17,-0.89 -0.14,0.52 -0.61,0.89 -1.17,0.89 -0.56,0 -1.03,-0.38 -1.17,-0.89 -0.11,0.41 -0.44,0.74 -0.85,0.85 0.52,0.14 0.89,0.61 0.89,1.17 0,0.56 -0.38,1.03 -0.89,1.17 0.52,0.14 0.89,0.61 0.89,1.17 0,0.67 -0.54,1.21 -1.21,1.21 -0.67,0 -1.21,-0.54 -1.21,-1.21 0,-0.56 0.38,-1.03 0.89,-1.17 -0.41,-0.11 -0.74,-0.44 -0.85,-0.85 -0.14,0.52 -0.61,0.89 -1.17,0.89 -0.67,0 -1.21,-0.54 -1.21,-1.21 0,-0.56 0.38,-1.03 0.89,-1.17 -0.52,-0.14 -0.89,-0.61 -0.89,-1.17 0,-0.67 0.54,-1.21 1.21,-1.21 0.56,0 1.03,0.38 1.17,0.89 0.11,-0.41 0.44,-0.74 0.85,-0.85 -0.52,-0.14 -0.89,-0.61 -0.89,-1.17 0,-0.56 0.38,-1.03 0.89,-1.17 -0.52,-0.14 -0.89,-0.61 -0.89,-1.17 0,-0.67 0.54,-1.21 1.21,-1.21 0.56,0 1.03,0.38 1.17,0.89 0.14,-0.52 0.61,-0.89 1.17,-0.89 0.56,0 1.03,0.38 1.17,0.89 0.14,-0.52 0.61,-0.89 1.17,-0.89 0.67,0 1.21,0.54 1.21,1.21 0,0.67 -0.54,1.21 -1.21,1.21 -0.56,0 -1.03,-0.38 -1.17,-0.89 -0.11,0.41 -0.44,0.74 -0.85,0.85 0.52,0.14 0.89,0.61 0.89,1.17 0,0.56 -0.38,1.03 -0.89,1.17 0.41,0.11 0.74,0.44 0.85,0.85 0.14,-0.52 0.61,-0.89 1.17,-0.89 0.56,0 1.03,0.38 1.17,0.89 0.11,-0.41 0.44,-0.74 0.85,-0.85 -0.52,-0.14 -0.89,-0.61 -0.89,-1.17 0,-0.67 0.54,-1.21 1.21,-1.21 0.67,0 1.21,0.54 1.21,1.21 0,0.56 -0.38,1.03 -0.89,1.17 0.41,0.11 0.74,0.44 0.85,0.85 0.14,-0.52 0.61,-0.89 1.17,-0.89 0.56,0 1.03,0.38 1.17,0.89 0.11,-0.41 0.44,-0.74 0.85,-0.85 -0.52,-0.14 -0.89,-0.61 -0.89,-1.17 0,-0.67 0.54,-1.21 1.21,-1.21 0.67,0 1.21,0.54 1.21,1.21 0,0.56 -0.38,1.03 -0.89,1.17 0.41,0.11 0.74,0.44 0.85,0.85 0.14,-0.52 0.61,-0.89 1.17,-0.89 0.56,0 1.03,0.38 1.17,0.89 0.11,-0.41 0.44,-0.74 0.85,-0.85 -0.52,-0.14 -0.89,-0.61 -0.89,-1.17 0,-0.67 0.54,-1.21 1.21,-1.21 0.67,0 1.21,0.54 1.21,1.21 0,0.56 -0.38,1.03 -0.89,1.17 0.52,0.14 0.89,0.61 0.89,1.17 0,0.67 -0.54,1.21 -1.21,1.21 -0.56,0 -1.03,-0.38 -1.17,-0.89 -0.11,0.41 -0.44,0.74 -0.85,0.85 0.52,0.14 0.89,0.61 0.89,1.17 0,0.56 -0.38,1.03 -0.89,1.17 0.41,0.11 0.74,0.44 0.85,0.85 0.14,-0.52 0.61,-0.89 1.17,-0.89 0.56,0 1.03,0.38 1.17,0.89 0.14,-0.52 0.61,-0.89 1.17,-0.89 0.67,0 1.21,0.54 1.21,1.21 0,0.67 -0.54,1.21 -1.21,1.21 -0.56,0 -1.03,-0.38 -1.17,-0.89 -0.11,0.41 -0.44,0.74 -0.85,0.85 0.52,0.14 0.89,0.61 0.89,1.17 0,0.56 -0.38,1.03 -0.89,1.17 0.41,0.11 0.74,0.44 0.85,0.85 0.14,-0.52 0.61,-0.89 1.17,-0.89 0.56,0 1.03,0.38 1.17,0.89 0.11,-0.41 0.44,-0.74 0.85,-0.85 -0.52,-0.14 -0.89,-0.61 -0.89,-1.17 0,-0.67 0.54,-1.21 1.21,-1.21 0.56,0 1.03,0.38 1.17,0.89 0.11,-0.41 0.44,-0.74 0.85,-0.85 -0.52,-0.14 -0.89,-0.61 -0.89,-1.17 0,-0.56 0.38,-1.03 0.89,-1.17 -0.52,-0.14 -0.89,-0.61 -0.89,-1.17 0,-0.67 0.54,-1.21 1.21,-1.21 0.67,0 1.21,0.54 1.21,1.21 0,0.56 -0.38,1.03 -0.89,1.17 0.41,0.11 0.74,0.44 0.85,0.85 0.14,-0.52 0.61,-0.89 1.17,-0.89 0.56,0 1.03,0.38 1.17,0.89 0.11,-0.41 0.44,-0.74 0.85,-0.85 -0.52,-0.14 -0.89,-0.61 -0.89,-1.17 0,-0.67 0.54,-1.21 1.21,-1.21 0.67,0 1.21,0.54 1.21,1.21 0,0.56 -0.38,1.03 -0.89,1.17 0.52,0.14 0.89,0.61 0.89,1.17 0,0.56 -0.38,1.03 -0.89,1.17 0.41,0.11 0.74,0.44 0.85,0.85 0.14,-0.52 0.61,-0.89 1.17,-0.89 0.56,0 1.03,0.38 1.17,0.89 0.14,-0.52 0.61,-0.89 1.17,-0.89 0.67,0 1.21,0.54 1.21,1.21 0,0.67 -0.54,1.21 -1.21,1.21 -0.56,0 -1.03,-0.38 -1.17,-0.89 -0.14,0.52 -0.61,0.89 -1.17,0.89 -0.56,0 -1.03,-0.38 -1.17,-0.89 -0.14,0.52 -0.61,0.89 -1.17,0.89 -0.67,0 -1.21,-0.54 -1.21,-1.21 0,-0.56 0.38,-1.03 0.89,-1.17 -0.41,-0.11 -0.74,-0.44 -0.85,-0.85 -0.14,0.52 -0.61,0.89 -1.17,0.89 -0.56,0 -1.03,-0.38 -1.17,-0.89 -0.11,0.41 -0.44,0.74 -0.85,0.85 0.52,0.14 0.89,0.61 0.89,1.17 0,0.67 -0.54,1.21 -1.21,1.21 -0.56,0 -1.03,-0.38 -1.17,-0.89 -0.11,0.41 -0.44,0.74 -0.85,0.85 0.52,0.14 0.89,0.61 0.89,1.17 0,0.67 -0.54,1.21 -1.21,1.21 -0.56,0 -1.03,-0.38 -1.17,-0.89 -0.14,0.52 -0.61,0.89 -1.17,0.89 -0.56,0 -1.03,-0.38 -1.17,-0.89 -0.14,0.52 -0.61,0.89 -1.17,0.89 -0.67,0 -1.21,-0.54 -1.21,-1.21 0,-0.56 0.38,-1.03 0.89,-1.17 -0.52,-0.14 -0.89,-0.61 -0.89,-1.17 0,-0.56 0.38,-1.03 0.89,-1.17 -0.41,-0.11 -0.74,-0.44 -0.85,-0.85 -0.14,0.52 -0.61,0.89 -1.17,0.89 -0.56,0 -1.03,-0.38 -1.17,-0.89 -0.14,0.52 -0.61,0.89 -1.17,0.89 -0.67,0 -1.21,-0.54 -1.21,-1.21 0,-0.56 0.38,-1.03 0.89,-1.17 -0.52,-0.14 -0.89,-0.61 -0.89,-1.17 0,-0.56 0.38,-1.03 0.89,-1.17 -0.41,-0.11 -0.74,-0.44 -0.85,-0.85 -0.14,0.52 -0.61,0.89 -1.17,0.89 -0.56,0 -1.03,-0.38 -1.17,-0.89 -0.11,0.41 -0.44,0.74 -0.85,0.85 0.52,0.14 0.89,0.61 0.89,1.17 0,0.56 -0.38,1.03 -0.89,1.17 0.52,0.14 0.89,0.61 0.89,1.17 0,0.56 -0.38,1.03 -0.89,1.17 0.41,0.11 0.74,0.44 0.85,0.85 0.14,-0.52 0.61,-0.89 1.17,-0.89 0.67,0 1.21,0.54 1.21,1.21 0,0.56 -0.38,1.03 -0.89,1.17 0.52,0.14 0.89,0.61 0.89,1.17 0,0.56 -0.38,1.03 -0.89,1.17 0.41,0.11 0.74,0.44 0.85,0.85 0.14,-0.52 0.61,-0.89 1.17,-0.89 0.56,0 1.03,0.38 1.17,0.89 0.14,-0.52 0.61,-0.89 1.17,-0.89 0.67,0 1.21,0.54 1.21,1.21 0,0.67 -0.54,1.21 -1.21,1.21 -0.56,0 -1.03,-0.38 -1.17,-0.89 -0.11,0.41 -0.44,0.74 -0.85,0.85 0.52,0.14 0.89,0.61 0.89,1.17 0,0.56 -0.38,1.03 -0.89,1.17 0.52,0.14 0.89,0.61 0.89,1.17 0,0.67 -0.54,1.21 -1.21,1.21 -0.67,0 -1.21,-0.54 -1.21,-1.21 0,-0.56 0.38,-1.03 0.89,-1.17 -0.41,-0.11 -0.74,-0.44 -0.85,-0.85 -0.14,0.52 -0.61,0.89 -1.17,0.89 -0.56,0 -1.03,-0.38 -1.17,-0.89 -0.11,0.41 -0.44,0.74 -0.85,0.85 0.52,0.14 0.89,0.61 0.89,1.17 0,0.56 -0.38,1.03 -0.89,1.17 0.52,0.14 0.89,0.61 0.89,1.17 0,0.67 -0.54,1.21 -1.21,1.21 -0.56,0 -1.03,-0.38 -1.17,-0.89 -0.14,0.52 -0.61,0.89 -1.17,0.89 -0.56,0 -1.03,-0.38 -1.17,-0.89 -0.14,0.52 -0.61,0.89 -1.17,0.89 -0.56,0 -1.03,-0.38 -1.17,-0.89 -0.11,0.41 -0.44,0.74 -0.85,0.85 0.52,0.14 0.89,0.61 0.89,1.17 0,0.56 -0.38,1.03 -0.89,1.17zm-1.48 0.85c0.11,-0.41 0.44,-0.74 0.85,-0.85 -0.41,-0.11 -0.74,-0.44 -0.85,-0.85 -0.11,0.41 -0.44,0.74 -0.85,0.85 0.41,0.11 0.74,0.44 0.85,0.85zm-8.18 -0.89c0.67,0 1.21,0.54 1.21,1.21 0,0.67 -0.54,1.21 -1.21,1.21 -0.67,0 -1.21,-0.54 -1.21,-1.21 0,-0.67 0.54,-1.21 1.21,-1.21zm43.25 -1.44c0.11,-0.41 0.44,-0.74 0.85,-0.85 -0.41,-0.11 -0.74,-0.44 -0.85,-0.85 -0.11,0.41 -0.44,0.74 -0.85,0.85 0.41,0.11 0.74,0.44 0.85,0.85zm-40.92 -0.89c0.67,0 1.21,0.54 1.21,1.21 0,0.67 -0.54,1.21 -1.21,1.21 -0.67,0 -1.21,-0.54 -1.21,-1.21 0,-0.67 0.54,-1.21 1.21,-1.21zm72.79 -2.3c0.52,0.14 0.89,0.61 0.89,1.17 0,0.67 -0.54,1.21 -1.21,1.21 -0.56,0 -1.03,-0.38 -1.17,-0.89 -0.14,0.52 -0.61,0.89 -1.17,0.89 -0.67,0 -1.21,-0.54 -1.21,-1.21 0,-0.56 0.38,-1.03 0.89,-1.17 -0.52,-0.14 -0.89,-0.61 -0.89,-1.17 0,-0.67 0.54,-1.21 1.21,-1.21 0.56,0 1.03,0.38 1.17,0.89 0.11,-0.41 0.44,-0.74 0.85,-0.85 -0.52,-0.14 -0.89,-0.61 -0.89,-1.17 0,-0.67 0.54,-1.21 1.21,-1.21 0.67,0 1.21,0.54 1.21,1.21 0,0.56 -0.38,1.03 -0.89,1.17 0.52,0.14 0.89,0.61 0.89,1.17 0,0.56 -0.38,1.03 -0.89,1.17zm-1.48 0.85c0.11,-0.41 0.44,-0.74 0.85,-0.85 -0.41,-0.11 -0.74,-0.44 -0.85,-0.85 -0.11,0.41 -0.44,0.74 -0.85,0.85 0.41,0.11 0.74,0.44 0.85,0.85zm-30.39 -0c0.11,-0.41 0.44,-0.74 0.85,-0.85 -0.41,-0.11 -0.74,-0.44 -0.85,-0.85 -0.11,0.41 -0.44,0.74 -0.85,0.85 0.41,0.11 0.74,0.44 0.85,0.85zm-2.34 0c0.11,-0.41 0.44,-0.74 0.85,-0.85 -0.41,-0.11 -0.74,-0.44 -0.85,-0.85 -0.11,0.41 -0.44,0.74 -0.85,0.85 0.41,0.11 0.74,0.44 0.85,0.85zm-9.35 0c0.11,-0.41 0.44,-0.74 0.85,-0.85 -0.41,-0.11 -0.74,-0.44 -0.85,-0.85 -0.11,0.41 -0.44,0.74 -0.85,0.85 0.41,0.11 0.74,0.44 0.85,0.85zm-16.37 -0c0.11,-0.41 0.44,-0.74 0.85,-0.85 -0.52,-0.14 -0.89,-0.61 -0.89,-1.17 0,-0.56 0.38,-1.03 0.89,-1.17 -0.41,-0.11 -0.74,-0.44 -0.85,-0.85 -0.14,0.52 -0.61,0.89 -1.17,0.89 -0.56,0 -1.03,-0.38 -1.17,-0.89 -0.11,0.41 -0.44,0.74 -0.85,0.85 0.52,0.14 0.89,0.61 0.89,1.17 0,0.56 -0.38,1.03 -0.89,1.17 0.41,0.11 0.74,0.44 0.85,0.85 0.14,-0.52 0.61,-0.89 1.17,-0.89 0.56,0 1.03,0.38 1.17,0.89zm-10.21 -0.85c0.52,0.14 0.89,0.61 0.89,1.17 0,0.67 -0.54,1.21 -1.21,1.21 -0.67,0 -1.21,-0.54 -1.21,-1.21 0,-0.56 0.38,-1.03 0.89,-1.17 -0.41,-0.11 -0.74,-0.44 -0.85,-0.85 -0.14,0.52 -0.61,0.89 -1.17,0.89 -0.67,0 -1.21,-0.54 -1.21,-1.21 0,-0.67 0.54,-1.21 1.21,-1.21 0.56,0 1.03,0.38 1.17,0.89 0.14,-0.52 0.61,-0.89 1.17,-0.89 0.67,0 1.21,0.54 1.21,1.21 0,0.56 -0.38,1.03 -0.89,1.17zm-4.99 -0.04c0.67,0 1.21,0.54 1.21,1.21 0,0.67 -0.54,1.21 -1.21,1.21 -0.67,0 -1.21,-0.54 -1.21,-1.21 0,-0.67 0.54,-1.21 1.21,-1.21zm68.12 -2.3c0.52,0.14 0.89,0.61 0.89,1.17 0,0.67 -0.54,1.21 -1.21,1.21 -0.67,0 -1.21,-0.54 -1.21,-1.21 0,-0.56 0.38,-1.03 0.89,-1.17 -0.52,-0.14 -0.89,-0.61 -0.89,-1.17 0,-0.67 0.54,-1.21 1.21,-1.21 0.67,0 1.21,0.54 1.21,1.21 0,0.56 -0.38,1.03 -0.89,1.17zm-14.34 -0.04c0.67,0 1.21,0.54 1.21,1.21 0,0.67 -0.54,1.21 -1.21,1.21 -0.67,0 -1.21,-0.54 -1.21,-1.21 0,-0.67 0.54,-1.21 1.21,-1.21zm-28.06 0c0.67,0 1.21,0.54 1.21,1.21 0,0.67 -0.54,1.21 -1.21,1.21 -0.67,0 -1.21,-0.54 -1.21,-1.21 0,-0.67 0.54,-1.21 1.21,-1.21zm30.39 -2.34c0.67,0 1.21,0.54 1.21,1.21 0,0.67 -0.54,1.21 -1.21,1.21 -0.67,0 -1.21,-0.54 -1.21,-1.21 0,-0.67 0.54,-1.21 1.21,-1.21zm-8.18 0.89c0.11,-0.41 0.44,-0.74 0.85,-0.85 -0.41,-0.11 -0.74,-0.44 -0.85,-0.85 -0.11,0.41 -0.44,0.74 -0.85,0.85 0.41,0.11 0.74,0.44 0.85,0.85zm-28.06 0c0.11,-0.41 0.44,-0.74 0.85,-0.85 -0.41,-0.11 -0.74,-0.44 -0.85,-0.85 -0.11,0.41 -0.44,0.74 -0.85,0.85 0.41,0.11 0.74,0.44 0.85,0.85zm44.42 -2.34c0.11,-0.41 0.44,-0.74 0.85,-0.85 -0.41,-0.11 -0.74,-0.44 -0.85,-0.85 -0.11,0.41 -0.44,0.74 -0.85,0.85 0.41,0.11 0.74,0.44 0.85,0.85zm-2.34 0c0.11,-0.41 0.44,-0.74 0.85,-0.85 -0.41,-0.11 -0.74,-0.44 -0.85,-0.85 -0.11,0.41 -0.44,0.74 -0.85,0.85 0.41,0.11 0.74,0.44 0.85,0.85zm-2.34 0c0.11,-0.41 0.44,-0.74 0.85,-0.85 -0.41,-0.11 -0.74,-0.44 -0.85,-0.85 -0.11,0.41 -0.44,0.74 -0.85,0.85 0.41,0.11 0.74,0.44 0.85,0.85zm-17.54 -0.89c0.67,0 1.21,0.54 1.21,1.21 0,0.67 -0.54,1.21 -1.21,1.21 -0.56,0 -1.03,-0.38 -1.17,-0.89 -0.14,0.52 -0.61,0.89 -1.17,0.89 -0.67,0 -1.21,-0.54 -1.21,-1.21 0,-0.67 0.54,-1.21 1.21,-1.21 0.56,0 1.03,0.38 1.17,0.89 0.14,-0.52 0.61,-0.89 1.17,-0.89zm-7.01 0c0.67,0 1.21,0.54 1.21,1.21 0,0.67 -0.54,1.21 -1.21,1.21 -0.56,0 -1.03,-0.38 -1.17,-0.89 -0.14,0.52 -0.61,0.89 -1.17,0.89 -0.67,0 -1.21,-0.54 -1.21,-1.21 0,-0.67 0.54,-1.21 1.21,-1.21 0.56,0 1.03,0.38 1.17,0.89 0.14,-0.52 0.61,-0.89 1.17,-0.89zm40.06 -2.3c0.52,0.14 0.89,0.61 0.89,1.17 0,0.67 -0.54,1.21 -1.21,1.21 -0.56,0 -1.03,-0.38 -1.17,-0.89 -0.14,0.52 -0.61,0.89 -1.17,0.89 -0.56,0 -1.03,-0.38 -1.17,-0.89 -0.14,0.52 -0.61,0.89 -1.17,0.89 -0.67,0 -1.21,-0.54 -1.21,-1.21 0,-0.56 0.38,-1.03 0.89,-1.17 -0.41,-0.11 -0.74,-0.44 -0.85,-0.85 -0.14,0.52 -0.61,0.89 -1.17,0.89 -0.67,0 -1.21,-0.54 -1.21,-1.21 0,-0.56 0.38,-1.03 0.89,-1.17 -0.52,-0.14 -0.89,-0.61 -0.89,-1.17 0,-0.56 0.38,-1.03 0.89,-1.17 -0.52,-0.14 -0.89,-0.61 -0.89,-1.17 0,-0.67 0.54,-1.21 1.21,-1.21 0.67,0 1.21,0.54 1.21,1.21 0,0.56 -0.38,1.03 -0.89,1.17 0.52,0.14 0.89,0.61 0.89,1.17 0,0.56 -0.38,1.03 -0.89,1.17 0.41,0.11 0.74,0.44 0.85,0.85 0.14,-0.52 0.61,-0.89 1.17,-0.89 0.56,0 1.03,0.38 1.17,0.89 0.11,-0.41 0.44,-0.74 0.85,-0.85 -0.52,-0.14 -0.89,-0.61 -0.89,-1.17 0,-0.67 0.54,-1.21 1.21,-1.21 0.67,0 1.21,0.54 1.21,1.21 0,0.56 -0.38,1.03 -0.89,1.17 0.41,0.11 0.74,0.44 0.85,0.85 0.14,-0.52 0.61,-0.89 1.17,-0.89 0.67,0 1.21,0.54 1.21,1.21 0,0.56 -0.38,1.03 -0.89,1.17zm-1.48 0.85c0.11,-0.41 0.44,-0.74 0.85,-0.85 -0.41,-0.11 -0.74,-0.44 -0.85,-0.85 -0.11,0.41 -0.44,0.74 -0.85,0.85 0.41,0.11 0.74,0.44 0.85,0.85zm-2.34 -0c0.11,-0.41 0.44,-0.74 0.85,-0.85 -0.41,-0.11 -0.74,-0.44 -0.85,-0.85 -0.11,0.41 -0.44,0.74 -0.85,0.85 0.41,0.11 0.74,0.44 0.85,0.85zm-11.69 0c0.11,-0.41 0.44,-0.74 0.85,-0.85 -0.41,-0.11 -0.74,-0.44 -0.85,-0.85 -0.11,0.41 -0.44,0.74 -0.85,0.85 0.41,0.11 0.74,0.44 0.85,0.85zm-42.08 -0c0.11,-0.41 0.44,-0.74 0.85,-0.85 -0.41,-0.11 -0.74,-0.44 -0.85,-0.85 -0.11,0.41 -0.44,0.74 -0.85,0.85 0.41,0.11 0.74,0.44 0.85,0.85zm-14.88 -0.85c0.52,0.14 0.89,0.61 0.89,1.17 0,0.67 -0.54,1.21 -1.21,1.21 -0.67,0 -1.21,-0.54 -1.21,-1.21 0,-0.56 0.38,-1.03 0.89,-1.17 -0.41,-0.11 -0.74,-0.44 -0.85,-0.85 -0.14,0.52 -0.61,0.89 -1.17,0.89 -0.67,0 -1.21,-0.54 -1.21,-1.21 0,-0.67 0.54,-1.21 1.21,-1.21 0.56,0 1.03,0.38 1.17,0.89 0.11,-0.41 0.44,-0.74 0.85,-0.85 -0.52,-0.14 -0.89,-0.61 -0.89,-1.17 0,-0.67 0.54,-1.21 1.21,-1.21 0.56,0 1.03,0.38 1.17,0.89 0.14,-0.52 0.61,-0.89 1.17,-0.89 0.67,0 1.21,0.54 1.21,1.21 0,0.67 -0.54,1.21 -1.21,1.21 -0.56,0 -1.03,-0.38 -1.17,-0.89 -0.11,0.41 -0.44,0.74 -0.85,0.85 0.52,0.14 0.89,0.61 0.89,1.17 0,0.56 -0.38,1.03 -0.89,1.17zm56.97 -1.48c0.11,-0.41 0.44,-0.74 0.85,-0.85 -0.41,-0.11 -0.74,-0.44 -0.85,-0.85 -0.11,0.41 -0.44,0.74 -0.85,0.85 0.41,0.11 0.74,0.44 0.85,0.85zm-11.69 -0c0.11,-0.41 0.44,-0.74 0.85,-0.85 -0.41,-0.11 -0.74,-0.44 -0.85,-0.85 -0.11,0.41 -0.44,0.74 -0.85,0.85 0.41,0.11 0.74,0.44 0.85,0.85zm14.03 -2.34c0.11,-0.41 0.44,-0.74 0.85,-0.85 -0.52,-0.14 -0.89,-0.61 -0.89,-1.17 0,-0.56 0.38,-1.03 0.89,-1.17 -0.41,-0.11 -0.74,-0.44 -0.85,-0.85 -0.14,0.52 -0.61,0.89 -1.17,0.89 -0.56,0 -1.03,-0.38 -1.17,-0.89 -0.11,0.41 -0.44,0.74 -0.85,0.85 0.52,0.14 0.89,0.61 0.89,1.17 0,0.56 -0.38,1.03 -0.89,1.17 0.41,0.11 0.74,0.44 0.85,0.85 0.14,-0.52 0.61,-0.89 1.17,-0.89 0.56,0 1.03,0.38 1.17,0.89zm-11.69 -0c0.11,-0.41 0.44,-0.74 0.85,-0.85 -0.41,-0.11 -0.74,-0.44 -0.85,-0.85 -0.11,0.41 -0.44,0.74 -0.85,0.85 0.41,0.11 0.74,0.44 0.85,0.85zm-2.34 0c0.11,-0.41 0.44,-0.74 0.85,-0.85 -0.41,-0.11 -0.74,-0.44 -0.85,-0.85 -0.11,0.41 -0.44,0.74 -0.85,0.85 0.41,0.11 0.74,0.44 0.85,0.85zm-25.72 0c0.11,-0.41 0.44,-0.74 0.85,-0.85 -0.41,-0.11 -0.74,-0.44 -0.85,-0.85 -0.11,0.41 -0.44,0.74 -0.85,0.85 0.41,0.11 0.74,0.44 0.85,0.85zm52.92 -3.19c0.52,0.14 0.89,0.61 0.89,1.17 0,0.67 -0.54,1.21 -1.21,1.21 -0.67,0 -1.21,-0.54 -1.21,-1.21 0,-0.56 0.38,-1.03 0.89,-1.17 -0.41,-0.11 -0.74,-0.44 -0.85,-0.85 -0.14,0.52 -0.61,0.89 -1.17,0.89 -0.56,0 -1.03,-0.38 -1.17,-0.89 -0.14,0.52 -0.61,0.89 -1.17,0.89 -0.67,0 -1.21,-0.54 -1.21,-1.21 0,-0.67 0.54,-1.21 1.21,-1.21 0.56,0 1.03,0.38 1.17,0.89 0.11,-0.41 0.44,-0.74 0.85,-0.85 -0.52,-0.14 -0.89,-0.61 -0.89,-1.17 0,-0.67 0.54,-1.21 1.21,-1.21 0.56,0 1.03,0.38 1.17,0.89 0.11,-0.41 0.44,-0.74 0.85,-0.85 -0.52,-0.14 -0.89,-0.61 -0.89,-1.17 0,-0.67 0.54,-1.21 1.21,-1.21 0.67,0 1.21,0.54 1.21,1.21 0,0.56 -0.38,1.03 -0.89,1.17 0.52,0.14 0.89,0.61 0.89,1.17 0,0.56 -0.38,1.03 -0.89,1.17 0.52,0.14 0.89,0.61 0.89,1.17 0,0.56 -0.38,1.03 -0.89,1.17zm-32.73 0c0.52,0.14 0.89,0.61 0.89,1.17 0,0.67 -0.54,1.21 -1.21,1.21 -0.67,0 -1.21,-0.54 -1.21,-1.21 0,-0.56 0.38,-1.03 0.89,-1.17 -0.52,-0.14 -0.89,-0.61 -0.89,-1.17 0,-0.67 0.54,-1.21 1.21,-1.21 0.56,0 1.03,0.38 1.17,0.89 0.14,-0.52 0.61,-0.89 1.17,-0.89 0.67,0 1.21,0.54 1.21,1.21 0,0.67 -0.54,1.21 -1.21,1.21 -0.56,0 -1.03,-0.38 -1.17,-0.89 -0.11,0.41 -0.44,0.74 -0.85,0.85zm-20.19 0.85c0.11,-0.41 0.44,-0.74 0.85,-0.85 -0.41,-0.11 -0.74,-0.44 -0.85,-0.85 -0.11,0.41 -0.44,0.74 -0.85,0.85 0.41,0.11 0.74,0.44 0.85,0.85zm-14.03 0c0.11,-0.41 0.44,-0.74 0.85,-0.85 -0.41,-0.11 -0.74,-0.44 -0.85,-0.85 -0.11,0.41 -0.44,0.74 -0.85,0.85 0.41,0.11 0.74,0.44 0.85,0.85zm65.46 -2.34c0.11,-0.41 0.44,-0.74 0.85,-0.85 -0.41,-0.11 -0.74,-0.44 -0.85,-0.85 -0.11,0.41 -0.44,0.74 -0.85,0.85 0.41,0.11 0.74,0.44 0.85,0.85zm-14.03 0c0.11,-0.41 0.44,-0.74 0.85,-0.85 -0.41,-0.11 -0.74,-0.44 -0.85,-0.85 -0.11,0.41 -0.44,0.74 -0.85,0.85 0.41,0.11 0.74,0.44 0.85,0.85zm-29.23 -0.89c0.67,0 1.21,0.54 1.21,1.21 0,0.67 -0.54,1.21 -1.21,1.21 -0.67,0 -1.21,-0.54 -1.21,-1.21 0,-0.67 0.54,-1.21 1.21,-1.21zm-19.87 0.89c0.11,-0.41 0.44,-0.74 0.85,-0.85 -0.41,-0.11 -0.74,-0.44 -0.85,-0.85 -0.11,0.41 -0.44,0.74 -0.85,0.85 0.41,0.11 0.74,0.44 0.85,0.85zm-8.18 -0.89c0.67,0 1.21,0.54 1.21,1.21 0,0.67 -0.54,1.21 -1.21,1.21 -0.56,0 -1.03,-0.38 -1.17,-0.89 -0.14,0.52 -0.61,0.89 -1.17,0.89 -0.67,0 -1.21,-0.54 -1.21,-1.21 0,-0.67 0.54,-1.21 1.21,-1.21 0.56,0 1.03,0.38 1.17,0.89 0.14,-0.52 0.61,-0.89 1.17,-0.89zm57.28 -1.44c0.11,-0.41 0.44,-0.74 0.85,-0.85 -0.41,-0.11 -0.74,-0.44 -0.85,-0.85 -0.11,0.41 -0.44,0.74 -0.85,0.85 0.41,0.11 0.74,0.44 0.85,0.85zm-12.86 -0.89c0.67,0 1.21,0.54 1.21,1.21 0,0.67 -0.54,1.21 -1.21,1.21 -0.67,0 -1.21,-0.54 -1.21,-1.21 0,-0.67 0.54,-1.21 1.21,-1.21zm-6.7 0.04c0.52,0.14 0.89,0.61 0.89,1.17 0,0.67 -0.54,1.21 -1.21,1.21 -0.56,0 -1.03,-0.38 -1.17,-0.89 -0.14,0.52 -0.61,0.89 -1.17,0.89 -0.67,0 -1.21,-0.54 -1.21,-1.21 0,-0.67 0.54,-1.21 1.21,-1.21 0.56,0 1.03,0.38 1.17,0.89 0.11,-0.41 0.44,-0.74 0.85,-0.85 -0.52,-0.14 -0.89,-0.61 -0.89,-1.17 0,-0.67 0.54,-1.21 1.21,-1.21 0.56,0 1.03,0.38 1.17,0.89 0.14,-0.52 0.61,-0.89 1.17,-0.89 0.56,0 1.03,0.38 1.17,0.89 0.14,-0.52 0.61,-0.89 1.17,-0.89 0.67,0 1.21,0.54 1.21,1.21 0,0.67 -0.54,1.21 -1.21,1.21 -0.56,0 -1.03,-0.38 -1.17,-0.89 -0.14,0.52 -0.61,0.89 -1.17,0.89 -0.56,0 -1.03,-0.38 -1.17,-0.89 -0.11,0.41 -0.44,0.74 -0.85,0.85zm-29.54 0.85c0.11,-0.41 0.44,-0.74 0.85,-0.85 -0.41,-0.11 -0.74,-0.44 -0.85,-0.85 -0.11,0.41 -0.44,0.74 -0.85,0.85 0.41,0.11 0.74,0.44 0.85,0.85zm57.28 -3.23c0.67,0 1.21,0.54 1.21,1.21 0,0.67 -0.54,1.21 -1.21,1.21 -0.67,0 -1.21,-0.54 -1.21,-1.21 0,-0.67 0.54,-1.21 1.21,-1.21zm-32.73 0c0.67,0 1.21,0.54 1.21,1.21 0,0.67 -0.54,1.21 -1.21,1.21 -0.67,0 -1.21,-0.54 -1.21,-1.21 0,-0.67 0.54,-1.21 1.21,-1.21zm-4.68 0c0.67,0 1.21,0.54 1.21,1.21 0,0.67 -0.54,1.21 -1.21,1.21 -0.56,0 -1.03,-0.38 -1.17,-0.89 -0.14,0.52 -0.61,0.89 -1.17,0.89 -0.67,0 -1.21,-0.54 -1.21,-1.21 0,-0.67 0.54,-1.21 1.21,-1.21 0.56,0 1.03,0.38 1.17,0.89 0.14,-0.52 0.61,-0.89 1.17,-0.89zm-6.7 0.04c0.52,0.14 0.89,0.61 0.89,1.17 0,0.67 -0.54,1.21 -1.21,1.21 -0.67,0 -1.21,-0.54 -1.21,-1.21 0,-0.56 0.38,-1.03 0.89,-1.17 -0.52,-0.14 -0.89,-0.61 -0.89,-1.17 0,-0.67 0.54,-1.21 1.21,-1.21 0.67,0 1.21,0.54 1.21,1.21 0,0.56 -0.38,1.03 -0.89,1.17zm-4.68 0c0.52,0.14 0.89,0.61 0.89,1.17 0,0.67 -0.54,1.21 -1.21,1.21 -0.67,0 -1.21,-0.54 -1.21,-1.21 0,-0.56 0.38,-1.03 0.89,-1.17 -0.52,-0.14 -0.89,-0.61 -0.89,-1.17 0,-0.56 0.38,-1.03 0.89,-1.17 -0.52,-0.14 -0.89,-0.61 -0.89,-1.17 0,-0.67 0.54,-1.21 1.21,-1.21 0.67,0 1.21,0.54 1.21,1.21 0,0.56 -0.38,1.03 -0.89,1.17 0.52,0.14 0.89,0.61 0.89,1.17 0,0.56 -0.38,1.03 -0.89,1.17zm-14.03 0c0.52,0.14 0.89,0.61 0.89,1.17 0,0.67 -0.54,1.21 -1.21,1.21 -0.56,0 -1.03,-0.38 -1.17,-0.89 -0.14,0.52 -0.61,0.89 -1.17,0.89 -0.56,0 -1.03,-0.38 -1.17,-0.89 -0.14,0.52 -0.61,0.89 -1.17,0.89 -0.67,0 -1.21,-0.54 -1.21,-1.21 0,-0.56 0.38,-1.03 0.89,-1.17 -0.52,-0.14 -0.89,-0.61 -0.89,-1.17 0,-0.56 0.38,-1.03 0.89,-1.17 -0.52,-0.14 -0.89,-0.61 -0.89,-1.17 0,-0.56 0.38,-1.03 0.89,-1.17 -0.52,-0.14 -0.89,-0.61 -0.89,-1.17 0,-0.67 0.54,-1.21 1.21,-1.21 0.56,0 1.03,0.38 1.17,0.89 0.14,-0.52 0.61,-0.89 1.17,-0.89 0.67,0 1.21,0.54 1.21,1.21 0,0.67 -0.54,1.21 -1.21,1.21 -0.56,0 -1.03,-0.38 -1.17,-0.89 -0.11,0.41 -0.44,0.74 -0.85,0.85 0.52,0.14 0.89,0.61 0.89,1.17 0,0.56 -0.38,1.03 -0.89,1.17 0.41,0.11 0.74,0.44 0.85,0.85 0.14,-0.52 0.61,-0.89 1.17,-0.89 0.56,0 1.03,0.38 1.17,0.89 0.14,-0.52 0.61,-0.89 1.17,-0.89 0.67,0 1.21,0.54 1.21,1.21 0,0.56 -0.38,1.03 -0.89,1.17zm-1.48 0.85c0.11,-0.41 0.44,-0.74 0.85,-0.85 -0.41,-0.11 -0.74,-0.44 -0.85,-0.85 -0.11,0.41 -0.44,0.74 -0.85,0.85 0.41,0.11 0.74,0.44 0.85,0.85zm-2.34 -0c0.11,-0.41 0.44,-0.74 0.85,-0.85 -0.41,-0.11 -0.74,-0.44 -0.85,-0.85 -0.11,0.41 -0.44,0.74 -0.85,0.85 0.41,0.11 0.74,0.44 0.85,0.85zm36.24 -3.23c0.67,0 1.21,0.54 1.21,1.21 0,0.67 -0.54,1.21 -1.21,1.21 -0.67,0 -1.21,-0.54 -1.21,-1.21 0,-0.67 0.54,-1.21 1.21,-1.21zm-4.68 0c0.67,0 1.21,0.54 1.21,1.21 0,0.67 -0.54,1.21 -1.21,1.21 -0.67,0 -1.21,-0.54 -1.21,-1.21 0,-0.67 0.54,-1.21 1.21,-1.21zm42.4 -2.3c0.52,0.14 0.89,0.61 0.89,1.17 0,0.67 -0.54,1.21 -1.21,1.21 -0.56,0 -1.03,-0.38 -1.17,-0.89 -0.14,0.52 -0.61,0.89 -1.17,0.89 -0.67,0 -1.21,-0.54 -1.21,-1.21 0,-0.67 0.54,-1.21 1.21,-1.21 0.56,0 1.03,0.38 1.17,0.89 0.11,-0.41 0.44,-0.74 0.85,-0.85 -0.52,-0.14 -0.89,-0.61 -0.89,-1.17 0,-0.56 0.38,-1.03 0.89,-1.17 -0.52,-0.14 -0.89,-0.61 -0.89,-1.17 0,-0.67 0.54,-1.21 1.21,-1.21 0.67,0 1.21,0.54 1.21,1.21 0,0.56 -0.38,1.03 -0.89,1.17 0.52,0.14 0.89,0.61 0.89,1.17 0,0.56 -0.38,1.03 -0.89,1.17zm-9.67 -0.04c0.67,0 1.21,0.54 1.21,1.21 0,0.67 -0.54,1.21 -1.21,1.21 -0.67,0 -1.21,-0.54 -1.21,-1.21 0,-0.67 0.54,-1.21 1.21,-1.21zm-7.01 0c0.67,0 1.21,0.54 1.21,1.21 0,0.67 -0.54,1.21 -1.21,1.21 -0.67,0 -1.21,-0.54 -1.21,-1.21 0,-0.67 0.54,-1.21 1.21,-1.21zm-11.37 0.04c0.52,0.14 0.89,0.61 0.89,1.17 0,0.67 -0.54,1.21 -1.21,1.21 -0.67,0 -1.21,-0.54 -1.21,-1.21 0,-0.56 0.38,-1.03 0.89,-1.17 -0.41,-0.11 -0.74,-0.44 -0.85,-0.85 -0.14,0.52 -0.61,0.89 -1.17,0.89 -0.67,0 -1.21,-0.54 -1.21,-1.21 0,-0.56 0.38,-1.03 0.89,-1.17 -0.52,-0.14 -0.89,-0.61 -0.89,-1.17 0,-0.67 0.54,-1.21 1.21,-1.21 0.56,0 1.03,0.38 1.17,0.89 0.11,-0.41 0.44,-0.74 0.85,-0.85 -0.52,-0.14 -0.89,-0.61 -0.89,-1.17 0,-0.56 0.38,-1.03 0.89,-1.17 -0.52,-0.14 -0.89,-0.61 -0.89,-1.17 0,-0.67 0.54,-1.21 1.21,-1.21 0.67,0 1.21,0.54 1.21,1.21 0,0.56 -0.38,1.03 -0.89,1.17 0.41,0.11 0.74,0.44 0.85,0.85 0.14,-0.52 0.61,-0.89 1.17,-0.89 0.67,0 1.21,0.54 1.21,1.21 0,0.56 -0.38,1.03 -0.89,1.17 0.41,0.11 0.74,0.44 0.85,0.85 0.14,-0.52 0.61,-0.89 1.17,-0.89 0.56,0 1.03,0.38 1.17,0.89 0.14,-0.52 0.61,-0.89 1.17,-0.89 0.67,0 1.21,0.54 1.21,1.21 0,0.67 -0.54,1.21 -1.21,1.21 -0.56,0 -1.03,-0.38 -1.17,-0.89 -0.14,0.52 -0.61,0.89 -1.17,0.89 -0.56,0 -1.03,-0.38 -1.17,-0.89 -0.11,0.41 -0.44,0.74 -0.85,0.85 0.52,0.14 0.89,0.61 0.89,1.17 0,0.67 -0.54,1.21 -1.21,1.21 -0.56,0 -1.03,-0.38 -1.17,-0.89 -0.11,0.41 -0.44,0.74 -0.85,0.85zm-4.99 -0.04c0.67,0 1.21,0.54 1.21,1.21 0,0.67 -0.54,1.21 -1.21,1.21 -0.67,0 -1.21,-0.54 -1.21,-1.21 0,-0.67 0.54,-1.21 1.21,-1.21zm-7.01 0c0.67,0 1.21,0.54 1.21,1.21 0,0.67 -0.54,1.21 -1.21,1.21 -0.67,0 -1.21,-0.54 -1.21,-1.21 0,-0.67 0.54,-1.21 1.21,-1.21zm-4.36 0.04c0.52,0.14 0.89,0.61 0.89,1.17 0,0.67 -0.54,1.21 -1.21,1.21 -0.56,0 -1.03,-0.38 -1.17,-0.89 -0.14,0.52 -0.61,0.89 -1.17,0.89 -0.56,0 -1.03,-0.38 -1.17,-0.89 -0.14,0.52 -0.61,0.89 -1.17,0.89 -0.67,0 -1.21,-0.54 -1.21,-1.21 0,-0.67 0.54,-1.21 1.21,-1.21 0.56,0 1.03,0.38 1.17,0.89 0.11,-0.41 0.44,-0.74 0.85,-0.85 -0.52,-0.14 -0.89,-0.61 -0.89,-1.17 0,-0.56 0.38,-1.03 0.89,-1.17 -0.52,-0.14 -0.89,-0.61 -0.89,-1.17 0,-0.67 0.54,-1.21 1.21,-1.21 0.56,0 1.03,0.38 1.17,0.89 0.11,-0.41 0.44,-0.74 0.85,-0.85 -0.52,-0.14 -0.89,-0.61 -0.89,-1.17 0,-0.67 0.54,-1.21 1.21,-1.21 0.56,0 1.03,0.38 1.17,0.89 0.11,-0.41 0.44,-0.74 0.85,-0.85 -0.52,-0.14 -0.89,-0.61 -0.89,-1.17 0,-0.56 0.38,-1.03 0.89,-1.17 -0.52,-0.14 -0.89,-0.61 -0.89,-1.17 0,-0.67 0.54,-1.21 1.21,-1.21 0.56,0 1.03,0.38 1.17,0.89 0.14,-0.52 0.61,-0.89 1.17,-0.89 0.67,0 1.21,0.54 1.21,1.21 0,0.67 -0.54,1.21 -1.21,1.21 -0.56,0 -1.03,-0.38 -1.17,-0.89 -0.11,0.41 -0.44,0.74 -0.85,0.85 0.52,0.14 0.89,0.61 0.89,1.17 0,0.56 -0.38,1.03 -0.89,1.17 0.41,0.11 0.74,0.44 0.85,0.85 0.14,-0.52 0.61,-0.89 1.17,-0.89 0.67,0 1.21,0.54 1.21,1.21 0,0.67 -0.54,1.21 -1.21,1.21 -0.56,0 -1.03,-0.38 -1.17,-0.89 -0.14,0.52 -0.61,0.89 -1.17,0.89 -0.56,0 -1.03,-0.38 -1.17,-0.89 -0.11,0.41 -0.44,0.74 -0.85,0.85 0.52,0.14 0.89,0.61 0.89,1.17 0,0.56 -0.38,1.03 -0.89,1.17 0.41,0.11 0.74,0.44 0.85,0.85 0.14,-0.52 0.61,-0.89 1.17,-0.89 0.67,0 1.21,0.54 1.21,1.21 0,0.67 -0.54,1.21 -1.21,1.21 -0.56,0 -1.03,-0.38 -1.17,-0.89 -0.11,0.41 -0.44,0.74 -0.85,0.85zm-1.48 0.85c0.11,-0.41 0.44,-0.74 0.85,-0.85 -0.41,-0.11 -0.74,-0.44 -0.85,-0.85 -0.11,0.41 -0.44,0.74 -0.85,0.85 0.41,0.11 0.74,0.44 0.85,0.85zm-15.2 -0.89c0.67,0 1.21,0.54 1.21,1.21 0,0.67 -0.54,1.21 -1.21,1.21 -0.56,0 -1.03,-0.38 -1.17,-0.89 -0.14,0.52 -0.61,0.89 -1.17,0.89 -0.56,0 -1.03,-0.38 -1.17,-0.89 -0.14,0.52 -0.61,0.89 -1.17,0.89 -0.56,0 -1.03,-0.38 -1.17,-0.89 -0.14,0.52 -0.61,0.89 -1.17,0.89 -0.67,0 -1.21,-0.54 -1.21,-1.21 0,-0.67 0.54,-1.21 1.21,-1.21 0.56,0 1.03,0.38 1.17,0.89 0.14,-0.52 0.61,-0.89 1.17,-0.89 0.56,0 1.03,0.38 1.17,0.89 0.14,-0.52 0.61,-0.89 1.17,-0.89 0.56,0 1.03,0.38 1.17,0.89 0.14,-0.52 0.61,-0.89 1.17,-0.89zm54.09 -2.3c0.52,0.14 0.89,0.61 0.89,1.17 0,0.67 -0.54,1.21 -1.21,1.21 -0.67,0 -1.21,-0.54 -1.21,-1.21 0,-0.56 0.38,-1.03 0.89,-1.17 -0.52,-0.14 -0.89,-0.61 -0.89,-1.17 0,-0.67 0.54,-1.21 1.21,-1.21 0.67,0 1.21,0.54 1.21,1.21 0,0.56 -0.38,1.03 -0.89,1.17zm-7.33 -0.04c0.67,0 1.21,0.54 1.21,1.21 0,0.67 -0.54,1.21 -1.21,1.21 -0.67,0 -1.21,-0.54 -1.21,-1.21 0,-0.67 0.54,-1.21 1.21,-1.21zm-4.68 0c0.67,0 1.21,0.54 1.21,1.21 0,0.67 -0.54,1.21 -1.21,1.21 -0.67,0 -1.21,-0.54 -1.21,-1.21 0,-0.67 0.54,-1.21 1.21,-1.21zm-8.18 0.89c0.11,-0.41 0.44,-0.74 0.85,-0.85 -0.41,-0.11 -0.74,-0.44 -0.85,-0.85 -0.11,0.41 -0.44,0.74 -0.85,0.85 0.41,0.11 0.74,0.44 0.85,0.85zm-2.34 0c0.11,-0.41 0.44,-0.74 0.85,-0.85 -0.41,-0.11 -0.74,-0.44 -0.85,-0.85 -0.11,0.41 -0.44,0.74 -0.85,0.85 0.41,0.11 0.74,0.44 0.85,0.85zm-5.85 -0.89c0.67,0 1.21,0.54 1.21,1.21 0,0.67 -0.54,1.21 -1.21,1.21 -0.67,0 -1.21,-0.54 -1.21,-1.21 0,-0.67 0.54,-1.21 1.21,-1.21zm-10.52 0.89c0.11,-0.41 0.44,-0.74 0.85,-0.85 -0.41,-0.11 -0.74,-0.44 -0.85,-0.85 -0.11,0.41 -0.44,0.74 -0.85,0.85 0.41,0.11 0.74,0.44 0.85,0.85zm-5.85 -0.89c0.67,0 1.21,0.54 1.21,1.21 0,0.67 -0.54,1.21 -1.21,1.21 -0.67,0 -1.21,-0.54 -1.21,-1.21 0,-0.67 0.54,-1.21 1.21,-1.21zm-7.01 0c0.67,0 1.21,0.54 1.21,1.21 0,0.67 -0.54,1.21 -1.21,1.21 -0.67,0 -1.21,-0.54 -1.21,-1.21 0,-0.67 0.54,-1.21 1.21,-1.21zm42.08 -2.34c0.67,0 1.21,0.54 1.21,1.21 0,0.67 -0.54,1.21 -1.21,1.21 -0.67,0 -1.21,-0.54 -1.21,-1.21 0,-0.67 0.54,-1.21 1.21,-1.21zm-10.52 0.89c0.11,-0.41 0.44,-0.74 0.85,-0.85 -0.41,-0.11 -0.74,-0.44 -0.85,-0.85 -0.11,0.41 -0.44,0.74 -0.85,0.85 0.41,0.11 0.74,0.44 0.85,0.85zm-26.57 -0.85c0.52,0.14 0.89,0.61 0.89,1.17 0,0.67 -0.54,1.21 -1.21,1.21 -0.56,0 -1.03,-0.38 -1.17,-0.89 -0.14,0.52 -0.61,0.89 -1.17,0.89 -0.67,0 -1.21,-0.54 -1.21,-1.21 0,-0.67 0.54,-1.21 1.21,-1.21 0.56,0 1.03,0.38 1.17,0.89 0.11,-0.41 0.44,-0.74 0.85,-0.85 -0.52,-0.14 -0.89,-0.61 -0.89,-1.17 0,-0.67 0.54,-1.21 1.21,-1.21 0.67,0 1.21,0.54 1.21,1.21 0,0.56 -0.38,1.03 -0.89,1.17zm-7.33 -0.04c0.67,0 1.21,0.54 1.21,1.21 0,0.67 -0.54,1.21 -1.21,1.21 -0.56,0 -1.03,-0.38 -1.17,-0.89 -0.14,0.52 -0.61,0.89 -1.17,0.89 -0.56,0 -1.03,-0.38 -1.17,-0.89 -0.14,0.52 -0.61,0.89 -1.17,0.89 -0.67,0 -1.21,-0.54 -1.21,-1.21 0,-0.67 0.54,-1.21 1.21,-1.21 0.56,0 1.03,0.38 1.17,0.89 0.14,-0.52 0.61,-0.89 1.17,-0.89 0.56,0 1.03,0.38 1.17,0.89 0.14,-0.52 0.61,-0.89 1.17,-0.89zm-9.35 0c0.67,0 1.21,0.54 1.21,1.21 0,0.67 -0.54,1.21 -1.21,1.21 -0.67,0 -1.21,-0.54 -1.21,-1.21 0,-0.67 0.54,-1.21 1.21,-1.21zm51.75 -2.3c0.52,0.14 0.89,0.61 0.89,1.17 0,0.67 -0.54,1.21 -1.21,1.21 -0.67,0 -1.21,-0.54 -1.21,-1.21 0,-0.56 0.38,-1.03 0.89,-1.17 -0.52,-0.14 -0.89,-0.61 -0.89,-1.17 0,-0.67 0.54,-1.21 1.21,-1.21 0.67,0 1.21,0.54 1.21,1.21 0,0.56 -0.38,1.03 -0.89,1.17zm-14.03 0c0.52,0.14 0.89,0.61 0.89,1.17 0,0.67 -0.54,1.21 -1.21,1.21 -0.56,0 -1.03,-0.38 -1.17,-0.89 -0.14,0.52 -0.61,0.89 -1.17,0.89 -0.67,0 -1.21,-0.54 -1.21,-1.21 0,-0.67 0.54,-1.21 1.21,-1.21 0.56,0 1.03,0.38 1.17,0.89 0.11,-0.41 0.44,-0.74 0.85,-0.85 -0.52,-0.14 -0.89,-0.61 -0.89,-1.17 0,-0.67 0.54,-1.21 1.21,-1.21 0.67,0 1.21,0.54 1.21,1.21 0,0.56 -0.38,1.03 -0.89,1.17zm-16.68 -0.04c0.67,0 1.21,0.54 1.21,1.21 0,0.67 -0.54,1.21 -1.21,1.21 -0.67,0 -1.21,-0.54 -1.21,-1.21 0,-0.67 0.54,-1.21 1.21,-1.21zm26.03 -2.3c0.52,0.14 0.89,0.61 0.89,1.17 0,0.67 -0.54,1.21 -1.21,1.21 -0.67,0 -1.21,-0.54 -1.21,-1.21 0,-0.56 0.38,-1.03 0.89,-1.17 -0.41,-0.11 -0.74,-0.44 -0.85,-0.85 -0.14,0.52 -0.61,0.89 -1.17,0.89 -0.67,0 -1.21,-0.54 -1.21,-1.21 0,-0.67 0.54,-1.21 1.21,-1.21 0.56,0 1.03,0.38 1.17,0.89 0.14,-0.52 0.61,-0.89 1.17,-0.89 0.67,0 1.21,0.54 1.21,1.21 0,0.56 -0.38,1.03 -0.89,1.17zm-14.34 -0.04c0.67,0 1.21,0.54 1.21,1.21 0,0.67 -0.54,1.21 -1.21,1.21 -0.67,0 -1.21,-0.54 -1.21,-1.21 0,-0.67 0.54,-1.21 1.21,-1.21zm-9.35 0c0.67,0 1.21,0.54 1.21,1.21 0,0.67 -0.54,1.21 -1.21,1.21 -0.67,0 -1.21,-0.54 -1.21,-1.21 0,-0.67 0.54,-1.21 1.21,-1.21zm-4.36 0.04c0.52,0.14 0.89,0.61 0.89,1.17 0,0.67 -0.54,1.21 -1.21,1.21 -0.67,0 -1.21,-0.54 -1.21,-1.21 0,-0.56 0.38,-1.03 0.89,-1.17 -0.41,-0.11 -0.74,-0.44 -0.85,-0.85 -0.14,0.52 -0.61,0.89 -1.17,0.89 -0.67,0 -1.21,-0.54 -1.21,-1.21 0,-0.67 0.54,-1.21 1.21,-1.21 0.56,0 1.03,0.38 1.17,0.89 0.14,-0.52 0.61,-0.89 1.17,-0.89 0.67,0 1.21,0.54 1.21,1.21 0,0.56 -0.38,1.03 -0.89,1.17zm-4.99 -0.04c0.67,0 1.21,0.54 1.21,1.21 0,0.67 -0.54,1.21 -1.21,1.21 -0.67,0 -1.21,-0.54 -1.21,-1.21 0,-0.67 0.54,-1.21 1.21,-1.21zm28.06 -4.68c0.67,0 1.21,0.54 1.21,1.21 0,0.67 -0.54,1.21 -1.21,1.21 -0.56,0 -1.03,-0.38 -1.17,-0.89 -0.14,0.52 -0.61,0.89 -1.17,0.89 -0.67,0 -1.21,-0.54 -1.21,-1.21 0,-0.56 0.38,-1.03 0.89,-1.17 -0.52,-0.14 -0.89,-0.61 -0.89,-1.17 0,-0.67 0.54,-1.21 1.21,-1.21 0.67,0 1.21,0.54 1.21,1.21 0,0.56 -0.38,1.03 -0.89,1.17 0.41,0.11 0.74,0.44 0.85,0.85 0.14,-0.52 0.61,-0.89 1.17,-0.89zm-9.04 0.04c0.52,0.14 0.89,0.61 0.89,1.17 0,0.67 -0.54,1.21 -1.21,1.21 -0.67,0 -1.21,-0.54 -1.21,-1.21 0,-0.56 0.38,-1.03 0.89,-1.17 -0.52,-0.14 -0.89,-0.61 -0.89,-1.17 0,-0.67 0.54,-1.21 1.21,-1.21 0.56,0 1.03,0.38 1.17,0.89 0.11,-0.41 0.44,-0.74 0.85,-0.85 -0.52,-0.14 -0.89,-0.61 -0.89,-1.17 0,-0.67 0.54,-1.21 1.21,-1.21 0.56,0 1.03,0.38 1.17,0.89 0.11,-0.41 0.44,-0.74 0.85,-0.85 -0.52,-0.14 -0.89,-0.61 -0.89,-1.17 0,-0.56 0.38,-1.03 0.89,-1.17 -0.41,-0.11 -0.74,-0.44 -0.85,-0.85 -0.14,0.52 -0.61,0.89 -1.17,0.89 -0.56,0 -1.03,-0.38 -1.17,-0.89 -0.14,0.52 -0.61,0.89 -1.17,0.89 -0.67,0 -1.21,-0.54 -1.21,-1.21 0,-0.67 0.54,-1.21 1.21,-1.21 0.56,0 1.03,0.38 1.17,0.89 0.14,-0.52 0.61,-0.89 1.17,-0.89 0.56,0 1.03,0.38 1.17,0.89 0.14,-0.52 0.61,-0.89 1.17,-0.89 0.67,0 1.21,0.54 1.21,1.21 0,0.56 -0.38,1.03 -0.89,1.17 0.41,0.11 0.74,0.44 0.85,0.85 0.14,-0.52 0.61,-0.89 1.17,-0.89 0.67,0 1.21,0.54 1.21,1.21 0,0.67 -0.54,1.21 -1.21,1.21 -0.56,0 -1.03,-0.38 -1.17,-0.89 -0.11,0.41 -0.44,0.74 -0.85,0.85 0.52,0.14 0.89,0.61 0.89,1.17 0,0.67 -0.54,1.21 -1.21,1.21 -0.56,0 -1.03,-0.38 -1.17,-0.89 -0.11,0.41 -0.44,0.74 -0.85,0.85 0.52,0.14 0.89,0.61 0.89,1.17 0,0.67 -0.54,1.21 -1.21,1.21 -0.56,0 -1.03,-0.38 -1.17,-0.89 -0.11,0.41 -0.44,0.74 -0.85,0.85zm-9.67 -0.04c0.67,0 1.21,0.54 1.21,1.21 0,0.67 -0.54,1.21 -1.21,1.21 -0.67,0 -1.21,-0.54 -1.21,-1.21 0,-0.67 0.54,-1.21 1.21,-1.21zm23.7 -2.3c0.52,0.14 0.89,0.61 0.89,1.17 0,0.67 -0.54,1.21 -1.21,1.21 -0.67,0 -1.21,-0.54 -1.21,-1.21 0,-0.56 0.38,-1.03 0.89,-1.17 -0.52,-0.14 -0.89,-0.61 -0.89,-1.17 0,-0.56 0.38,-1.03 0.89,-1.17 -0.52,-0.14 -0.89,-0.61 -0.89,-1.17 0,-0.56 0.38,-1.03 0.89,-1.17 -0.41,-0.11 -0.74,-0.44 -0.85,-0.85 -0.14,0.52 -0.61,0.89 -1.17,0.89 -0.67,0 -1.21,-0.54 -1.21,-1.21 0,-0.67 0.54,-1.21 1.21,-1.21 0.56,0 1.03,0.38 1.17,0.89 0.14,-0.52 0.61,-0.89 1.17,-0.89 0.56,0 1.03,0.38 1.17,0.89 0.14,-0.52 0.61,-0.89 1.17,-0.89 0.56,0 1.03,0.38 1.17,0.89 0.14,-0.52 0.61,-0.89 1.17,-0.89 0.67,0 1.21,0.54 1.21,1.21 0,0.67 -0.54,1.21 -1.21,1.21 -0.56,0 -1.03,-0.38 -1.17,-0.89 -0.11,0.41 -0.44,0.74 -0.85,0.85 0.52,0.14 0.89,0.61 0.89,1.17 0,0.56 -0.38,1.03 -0.89,1.17 0.41,0.11 0.74,0.44 0.85,0.85 0.14,-0.52 0.61,-0.89 1.17,-0.89 0.67,0 1.21,0.54 1.21,1.21 0,0.67 -0.54,1.21 -1.21,1.21 -0.56,0 -1.03,-0.38 -1.17,-0.89 -0.14,0.52 -0.61,0.89 -1.17,0.89 -0.56,0 -1.03,-0.38 -1.17,-0.89 -0.11,0.41 -0.44,0.74 -0.85,0.85zm-26.03 -0.04c0.67,0 1.21,0.54 1.21,1.21 0,0.67 -0.54,1.21 -1.21,1.21 -0.56,0 -1.03,-0.38 -1.17,-0.89 -0.14,0.52 -0.61,0.89 -1.17,0.89 -0.56,0 -1.03,-0.38 -1.17,-0.89 -0.14,0.52 -0.61,0.89 -1.17,0.89 -0.56,0 -1.03,-0.38 -1.17,-0.89 -0.14,0.52 -0.61,0.89 -1.17,0.89 -0.67,0 -1.21,-0.54 -1.21,-1.21 0,-0.67 0.54,-1.21 1.21,-1.21 0.56,0 1.03,0.38 1.17,0.89 0.14,-0.52 0.61,-0.89 1.17,-0.89 0.56,0 1.03,0.38 1.17,0.89 0.11,-0.41 0.44,-0.74 0.85,-0.85 -0.52,-0.14 -0.89,-0.61 -0.89,-1.17 0,-0.67 0.54,-1.21 1.21,-1.21 0.67,0 1.21,0.54 1.21,1.21 0,0.56 -0.38,1.03 -0.89,1.17 0.41,0.11 0.74,0.44 0.85,0.85 0.14,-0.52 0.61,-0.89 1.17,-0.89zm26.89 -1.44c0.11,-0.41 0.44,-0.74 0.85,-0.85 -0.41,-0.11 -0.74,-0.44 -0.85,-0.85 -0.11,0.41 -0.44,0.74 -0.85,0.85 0.41,0.11 0.74,0.44 0.85,0.85zm-5.85 -0.89c0.67,0 1.21,0.54 1.21,1.21 0,0.67 -0.54,1.21 -1.21,1.21 -0.67,0 -1.21,-0.54 -1.21,-1.21 0,-0.67 0.54,-1.21 1.21,-1.21zm-16.37 0c0.67,0 1.21,0.54 1.21,1.21 0,0.67 -0.54,1.21 -1.21,1.21 -0.67,0 -1.21,-0.54 -1.21,-1.21 0,-0.67 0.54,-1.21 1.21,-1.21zm22.21 -1.44c0.11,-0.41 0.44,-0.74 0.85,-0.85 -0.41,-0.11 -0.74,-0.44 -0.85,-0.85 -0.11,0.41 -0.44,0.74 -0.85,0.85 0.41,0.11 0.74,0.44 0.85,0.85zm-19.56 -0.85c0.52,0.14 0.89,0.61 0.89,1.17 0,0.67 -0.54,1.21 -1.21,1.21 -0.67,0 -1.21,-0.54 -1.21,-1.21 0,-0.56 0.38,-1.03 0.89,-1.17 -0.52,-0.14 -0.89,-0.61 -0.89,-1.17 0,-0.67 0.54,-1.21 1.21,-1.21 0.67,0 1.21,0.54 1.21,1.21 0,0.56 -0.38,1.03 -0.89,1.17zm-12.01 -0.04c0.67,0 1.21,0.54 1.21,1.21 0,0.67 -0.54,1.21 -1.21,1.21 -0.67,0 -1.21,-0.54 -1.21,-1.21 0,-0.67 0.54,-1.21 1.21,-1.21z"/>
  <path fill="black" d="M13.18 2.34l-5.31 0c-3.05,0 -5.53,2.51 -5.53,5.59l-0 10.78 10.84 0c3.05,0 5.52,-2.51 5.52,-5.59l0 -5.19 0 -5.59 -5.52 0zm3.07 10.78c0,1.73 -1.38,3.13 -3.07,3.13l-8.39 0 0 -8.32c0,-1.73 1.38,-3.13 3.07,-3.13l8.38 0 0 8.32z"/>
  <path fill="black" d="M68.65 2.34l5.31 0c3.05,0 5.53,2.51 5.53,5.59l0 10.78 -10.84 0c-3.05,0 -5.52,-2.51 -5.52,-5.59l0 -5.19 0 -5.59 5.52 0zm-3.07 10.78c0,1.73 1.38,3.13 3.07,3.13l8.39 0 -0 -8.32c0,-1.73 -1.38,-3.13 -3.07,-3.13l-8.38 0 0 8.32z"/>
  <path fill="black" d="M13.18 79.49l-5.31 0c-3.05,0 -5.53,-2.51 -5.53,-5.59l-0 -10.78 10.84 0c3.05,0 5.52,2.51 5.52,5.59l0 5.19 0 5.59 -5.52 0zm3.07 -10.78c0,-1.73 -1.38,-3.13 -3.07,-3.13l-8.39 0 0 8.32c0,1.73 1.38,3.13 3.07,3.13l8.38 0 0 -8.32z"/>
  <path fill="#FF7E00" d="M7.15 71.38c0,1.9 1.54,3.44 3.44,3.44 1.9,0 3.44,-1.54 3.44,-3.44 0,-1.9 -1.54,-3.44 -3.44,-3.44 -1.9,0 -3.44,1.54 -3.44,3.44zm67.53 -60.93c0,-1.9 -1.54,-3.44 -3.44,-3.44 -1.9,0 -3.44,1.54 -3.44,3.44 0,1.9 1.54,3.44 3.44,3.44 1.9,0 3.44,-1.54 3.44,-3.44zm-67.53 0c0,-1.9 1.54,-3.44 3.44,-3.44 1.9,0 3.44,1.54 3.44,3.44 0,1.9 -1.54,3.44 -3.44,3.44 -1.9,0 -3.44,-1.54 -3.44,-3.44z"/>
  <g id="_1496571280">
   <circle fill="black" cx="40.92" cy="40.92" r="9.52"/>
   <circle fill="#4D76A1" cx="40.92" cy="40.92" r="8.97"/>
   <path fill="white" d="M43.93 44.6c0,0 2.4,0.27 2.31,-0.4 -0.11,-0.82 -2.09,-1.83 -1.74,-2.54 0.23,-0.46 2.3,-2.72 1.58,-3.01 -0.08,-0.03 -2.18,-0.03 -2.27,0 -0.22,0.08 -1.45,3.24 -2.01,2.69 -0.46,-0.46 0.31,-2.67 -0.5,-2.93 -0.39,-0.12 -2.28,-0.19 -2.44,0.31 -0.04,0.13 0.44,-0.02 0.6,0.53 0,0 0.51,3.85 -1.13,1.23 -0.4,-0.65 -0.76,-1.72 -1.07,-1.83 -0,-0 -2.08,-0.24 -2.06,0.23 0.02,0.61 1.99,3.87 2.8,4.62 0.82,0.76 1.72,1.12 2.86,1.12 1.31,0 0.5,-0.7 1.02,-1.33 0.48,-0.59 1.22,1.1 2.06,1.31z"/>
  </g>
 </g>
</svg>
