<?xml version="1.0" encoding="UTF-8"?>
<!DOCTYPE svg PUBLIC "-//W3C//DTD SVG 1.1//EN" "http://www.w3.org/Graphics/SVG/1.1/DTD/svg11.dtd">
<!-- Creator: CorelDRAW X8 -->
<svg xmlns="http://www.w3.org/2000/svg" xml:space="preserve" width="3446px" height="1095px" version="1.1" style="shape-rendering:geometricPrecision; text-rendering:geometricPrecision; image-rendering:optimizeQuality; fill-rule:evenodd; clip-rule:evenodd"
viewBox="0 0 3446 1095"
 xmlns:xlink="http://www.w3.org/1999/xlink">
 <defs>
  <style type="text/css">
   <![CDATA[
    .fil0 {fill:black}
    .fil1 {fill:#FF8800}
    .fil2 {fill:#2B2A29;fill-rule:nonzero}
   ]]>
  </style>
 </defs>
 <g id="Слой_x0020_1">
  <metadata id="CorelCorpID_0Corel-Layer"/>
  <g id="_824823072">
   <path class="fil0" d="M274 522c33,-64 112,-88 176,-54 40,21 64,61 68,103 11,86 62,166 145,210 134,72 302,21 374,-114 72,-134 21,-302 -114,-374 -82,-44 -177,-42 -255,-3 -1,1 -3,2 -4,2 -1,1 -1,1 -2,1 -36,17 -79,18 -117,-2 -63,-34 -87,-113 -54,-176 14,-25 34,-44 57,-56l0 0c74,-38 157,-58 241,-59l10 0c83,1 168,21 247,63 261,140 360,465 221,727 -140,262 -465,360 -727,221 -157,-84 -255,-235 -279,-400 -6,-29 -3,-61 13,-89z"/>
   <path class="fil1" d="M289 45c62,33 98,93 104,158 7,66 46,128 109,162 58,31 125,32 181,7 59,-38 135,-44 201,-9 96,51 132,170 81,266 -51,96 -170,132 -266,81 -62,-33 -99,-94 -103,-159 -9,-65 -47,-125 -109,-158 -63,-34 -136,-32 -196,-1l0 0c-56,30 -126,33 -187,0 -66,-35 -103,-102 -104,-171l0 -3c0,-31 8,-62 23,-92 51,-96 171,-132 266,-81z"/>
   <path class="fil2" d="M1714 424l0 -365 137 0c28,0 51,3 68,11 16,7 30,18 39,34 10,15 14,31 14,48 0,16 -4,30 -12,44 -9,14 -21,25 -38,33 22,7 39,18 50,34 12,15 18,34 18,55 0,17 -3,33 -11,48 -7,14 -16,26 -26,34 -11,7 -24,13 -40,18 -16,4 -36,6 -59,6l-140 0zm49 -212l79 0c21,0 37,-1 46,-4 12,-4 21,-10 28,-18 6,-9 9,-20 9,-32 0,-13 -3,-23 -9,-32 -6,-10 -14,-16 -25,-19 -10,-4 -29,-6 -55,-6l-73 0 0 111zm0 169l91 0c15,0 26,-1 33,-2 11,-2 20,-5 28,-10 7,-5 13,-11 18,-20 5,-9 7,-19 7,-31 0,-14 -3,-26 -10,-36 -7,-10 -17,-17 -29,-21 -13,-4 -30,-6 -54,-6l-84 0 0 126zm461 -54l44 6c-5,30 -17,54 -37,71 -20,17 -44,25 -73,25 -36,0 -65,-12 -87,-35 -22,-24 -33,-58 -33,-102 0,-28 4,-53 14,-75 9,-21 24,-37 43,-48 19,-10 40,-16 63,-16 29,0 52,8 71,22 18,15 30,35 35,62l-44 7c-4,-18 -11,-31 -22,-40 -10,-9 -23,-14 -38,-14 -23,0 -41,8 -55,24 -14,17 -21,42 -21,77 0,36 6,61 20,77 14,16 31,25 53,25 18,0 33,-6 44,-17 12,-10 20,-27 23,-49zm262 11l47 6c-7,27 -21,48 -41,63 -19,15 -44,22 -75,22 -39,0 -69,-12 -92,-35 -23,-24 -34,-58 -34,-100 0,-45 12,-79 34,-104 23,-24 53,-37 89,-37 36,0 64,12 87,36 22,24 33,58 33,102 0,3 0,7 0,12l-197 0c2,29 10,51 25,66 14,16 33,24 55,24 16,0 30,-5 42,-13 11,-9 21,-23 27,-42zm-146 -72l147 0c-2,-22 -8,-39 -17,-50 -14,-17 -33,-26 -55,-26 -21,0 -38,7 -52,21 -14,14 -22,32 -23,55zm-436 354l39 0c-1,18 -5,30 -11,37 -6,7 -14,12 -24,14 -9,2 -28,3 -56,3 -37,0 -62,3 -75,10 -14,7 -23,19 -29,34 -6,16 -9,36 -10,61 11,-17 25,-29 40,-38 15,-8 32,-12 51,-12 34,0 63,12 86,35 23,24 34,56 34,97 0,31 -6,56 -17,76 -12,20 -25,35 -41,46 -16,11 -37,16 -64,16 -31,0 -56,-7 -73,-22 -18,-14 -31,-32 -40,-55 -10,-22 -14,-61 -14,-116 0,-70 11,-117 35,-141 24,-25 60,-37 109,-37 30,0 48,0 52,-1 4,-1 6,-4 8,-7zm-2 240c0,-28 -6,-50 -19,-68 -13,-17 -32,-26 -56,-26 -24,0 -43,9 -57,28 -13,18 -20,43 -20,74 0,31 8,54 22,70 15,17 34,25 55,25 22,0 40,-10 54,-28 14,-19 21,-44 21,-75zm101 235l0 -366 41 0 0 34c9,-13 20,-23 32,-30 12,-7 27,-10 44,-10 23,0 43,6 60,17 17,12 30,28 39,50 9,21 13,44 13,69 0,27 -4,51 -14,73 -10,22 -24,38 -42,50 -19,11 -38,17 -59,17 -15,0 -28,-3 -40,-10 -12,-6 -22,-14 -29,-23l0 129 -45 0zm41 -232c0,34 7,59 20,75 14,16 31,24 50,24 20,0 37,-8 51,-25 14,-17 22,-43 22,-78 0,-34 -7,-59 -21,-76 -14,-16 -31,-25 -50,-25 -19,0 -36,9 -50,27 -15,18 -22,44 -22,78zm423 45l46 6c-7,27 -20,48 -40,63 -20,14 -45,22 -76,22 -38,0 -69,-12 -91,-36 -23,-23 -34,-57 -34,-100 0,-44 11,-79 34,-103 23,-25 53,-37 89,-37 35,0 64,12 86,36 23,24 34,58 34,102 0,2 0,6 0,11l-197 0c1,29 10,52 24,67 15,15 33,23 55,23 17,0 31,-4 42,-13 12,-8 21,-22 28,-41zm-147 -72l148 0c-2,-23 -8,-39 -17,-50 -15,-18 -33,-26 -56,-26 -20,0 -38,7 -52,20 -14,14 -21,33 -23,56zm250 -107l45 0 0 110 124 0 0 -110 45 0 0 264 -45 0 0 -117 -124 0 0 117 -45 0 0 -264zm317 0l184 0 0 228 29 0 0 111 -37 0 0 -75 -208 0 0 75 -37 0 0 -111 24 0c31,-43 46,-119 45,-228zm37 37c-3,86 -16,149 -40,191l143 0 0 -191 -103 0zm477 -37l45 0 0 264 -45 0 0 -264zm-250 0l45 0 0 103 56 0c37,0 66,7 86,22 20,14 29,34 29,59 0,22 -8,41 -25,57 -16,16 -43,23 -79,23l-112 0 0 -264zm45 228l47 0c28,0 48,-4 60,-11 13,-7 19,-18 19,-32 0,-12 -5,-22 -14,-31 -9,-9 -29,-14 -59,-14l-53 0 0 88z"/>
  </g>
 </g>
</svg>
