<?xml version="1.0" encoding="UTF-8"?>
<!DOCTYPE svg PUBLIC "-//W3C//DTD SVG 1.1//EN" "http://www.w3.org/Graphics/SVG/1.1/DTD/svg11.dtd">
<!-- Creator: CorelDRAW 2018 (64-Bit) -->
<svg xmlns="http://www.w3.org/2000/svg" xml:space="preserve" width="33.4269mm" height="5.61668mm" version="1.1" shape-rendering="geometricPrecision" text-rendering="geometricPrecision" image-rendering="optimizeQuality" fill-rule="evenodd" clip-rule="evenodd"
viewBox="0 0 3954.5 664.47"
 xmlns:xlink="http://www.w3.org/1999/xlink">
 <g id="ICO-menu">
  <metadata id="CorelCorpID_0Corel-Layer"/>
  <path fill="#0056A6" fill-rule="nonzero" d="M314.88 0.25c101.81,-0.48 203.58,-0.09 305.39,-0.22 0,104.64 0.09,209.24 -0.04,313.88 -49.97,-105.16 -124.45,-200.1 -221.56,-265.43 -26.55,-18.41 -55.19,-33.39 -83.79,-48.23zm-314.88 0.31c129.84,0.52 258.38,45.88 361.37,124.62 163.27,122.88 262.52,325.59 258.9,529.99 -206.76,-0.04 -413.51,-0.04 -620.23,-0.04 -0.09,-218.16 0,-436.37 -0.04,-654.57zm152.43 183.16l0 0c-0.17,103.07 -0.09,206.15 -0.09,309.27 97.46,-0.04 194.92,0 292.33,-0.04 -46.62,-138.77 -154.52,-257.25 -292.25,-309.22zm954.35 76.35c-0.13,-86.32 -0.13,-172.67 0,-258.99 28.6,0.09 57.24,0 85.88,0.04 0,150.13 0,300.3 0,450.47 0.31,49.4 -21.2,96.98 -52.97,134.07 -43.66,50.88 -110.87,80.31 -177.86,78.22 -62.77,-0.78 -124.71,-29.56 -165.06,-77.74 -36.13,-41.74 -54.93,-97.11 -54.71,-152.04 0.61,-58.37 25.55,-116.13 67.81,-156.44 47.01,-47.66 116.57,-71.69 182.99,-63.59 41.35,4.35 80.75,21.11 113.91,46.01zm-173.37 41.96l0 0c-35.95,9.36 -68.08,33.08 -86.75,65.34 -32.64,52.8 -23.37,126.67 21.42,169.67 44.53,47.36 122.97,55.85 176.59,19.15 56.59,-35.21 80.87,-113.39 52.32,-174.02 -25.68,-61.81 -98.94,-97.63 -163.58,-80.13zm872.78 -281.67c23.33,-12.75 49.93,-18.11 76.35,-18.72 0.09,28.12 0.04,56.24 0.04,84.4 -24.03,1.57 -47.19,12.36 -62.25,31.38 -22.03,25.68 -29.21,60.63 -27.07,93.71 29.77,0 59.55,0 89.32,0 0,28.64 0,57.32 0,85.97 -29.77,0.04 -59.55,-0.09 -89.32,0.09 0.17,119.31 0.04,238.62 0.09,357.93 -29.03,0 -58.02,-0.04 -86.97,0.04 -0.18,-130.19 -0.04,-260.38 -0.09,-390.57 0.83,-41.05 -3.53,-83.01 8.01,-123.01 13.67,-49.97 45.7,-96.37 91.89,-121.23zm1289.69 -19.19c29.03,-0.09 58.07,-0.09 87.1,-0.04 0,134.24 -0.04,268.44 0,402.68 -0.04,28.25 0.39,56.8 -4.48,84.75 -12.19,55.19 -46.7,104.81 -93.58,136.24 -57.59,39.52 -133.76,49.8 -199.92,27.77 -53.37,-17.19 -99.03,-56.02 -125.4,-105.34 -30.34,-55.71 -36.91,-124.4 -15.28,-184.21 24.51,-69.69 85.23,-125.4 156.92,-143.47 66.68,-17.63 140.2,-1.44 194.79,40.31 -0.22,-86.23 0,-172.46 -0.13,-258.68zm-173.2 300.95l0 0c-23.81,6.14 -45.79,18.76 -63.42,35.87 -45.31,42.31 -56.28,115.83 -24.42,169.24 33.04,61.81 115.57,90.01 179.21,59.89 64.99,-26.94 101.03,-106.6 77.09,-173.02 -21.5,-68.16 -99.33,-111.26 -168.45,-91.97zm-1655.58 1.96c37.35,-51.01 97.11,-84.7 160.05,-90.67 61.46,-6.7 124.88,14.1 171.33,54.76 56.63,47.88 87.4,125.06 76.35,198.79 -121.49,-0.04 -243.02,-0.22 -364.5,0.09 13.32,55.58 60.29,101.77 117.14,110.95 55.15,10.36 112.3,-18.19 142.81,-64.2 24.68,14.06 49.23,28.47 73.95,42.44 -30.47,48.27 -78.39,85.88 -133.98,100.2 -61.94,17.06 -131.06,6.79 -184.56,-29.08 -61.33,-39.96 -101.64,-110.87 -102.64,-184.25 -1.44,-49.53 14.28,-99.37 44.05,-139.03zm120.01 7.27l0 0c-33.39,15.93 -57.67,46.49 -71.43,80.31 89.19,0.22 178.38,0.22 267.57,0 -10.84,-27.2 -28.25,-52.28 -52.89,-68.6 -40.96,-29.38 -98.11,-34.6 -143.25,-11.71zm563.56 -45.84c48.67,-41.13 115.17,-60.29 178.25,-51.01 53.58,7.53 103.6,35.43 139.25,76 42.4,47.36 63.03,113.35 53.93,176.42 -121.53,0 -243.06,-0.13 -364.59,0.04 13.49,57.72 63.94,105.08 123.23,111.95 53.54,7.44 107.47,-20.89 136.98,-65.21 24.46,14.41 49.14,28.47 73.82,42.57 -30.95,48.84 -79.7,86.75 -136.15,100.68 -60.07,15.93 -126.71,6.4 -179.03,-27.42 -64.46,-40.22 -107.08,-114.52 -105.9,-190.91 -1.39,-65.95 29.64,-131.11 80.22,-173.11zm103.9 37.69l0 0c-42.79,12.36 -75.56,47.84 -91.58,88.58 89.14,-0.09 178.33,0.09 267.52,-0.09 -6.09,-14.41 -13.15,-28.51 -22.98,-40.7 -35.08,-44.88 -98.5,-65.2 -152.96,-47.79zm299.21 -92.06c59.72,0.31 119.44,-0.57 179.12,0.39 84.27,2.7 160.97,73.74 167.84,158.09 0.52,95.46 -0.04,191 0.22,286.5 -28.68,0.17 -57.33,0.04 -86.01,0.09 -0.17,-91.41 0.39,-182.86 -0.26,-274.27 -0.26,-43.62 -37.91,-83.18 -81.62,-84.71 -30.77,-0.48 -61.5,0.04 -92.28,-0.09 0.09,119.66 0.04,239.36 0.04,359.06 -29.03,0 -58.07,0 -87.06,0 0,-148.34 -0.04,-296.73 0,-445.07zm914.39 78.48c47.18,-54.45 121.31,-83.75 192.92,-76.3 64.03,6.01 124.23,41.13 162.05,92.89 33.86,45.62 49.1,104.25 41.22,160.62 -121.53,0.22 -243.06,-0.13 -364.63,0.17 13.15,55.59 60.16,101.46 116.79,110.95 55.15,10.4 113.04,-17.76 143.08,-64.29 24.68,14.32 49.53,28.47 74.3,42.74 -30.38,47.1 -76.65,84.49 -131.15,99.24 -62.81,18.11 -133.33,8.1 -187.74,-28.42 -56.28,-36.56 -94.85,-99.16 -101.38,-166.06 -7.05,-61.55 13.62,-125.23 54.54,-171.54zm36.96 102.03l0 0c89.19,0.26 178.38,0.04 267.57,0.09 -22.94,-66.9 -99.68,-108.95 -168.32,-90.67 -46.14,10.58 -82.31,47.27 -99.24,90.58zm542.92 -167.06c34,-12.49 70.6,-14.41 106.47,-13.45 0,28.64 0,57.28 0,85.88 -35.17,-0.65 -72.39,0.65 -103.42,19.33 -41.92,23.03 -67.42,70.38 -67.47,117.7 0.09,74.04 0.04,148.12 0.04,222.16 -28.68,-0.04 -57.37,0.09 -86.05,-0.13 0.17,-65.25 0,-130.5 0.09,-195.79 0.13,-20.55 -1.22,-41.27 2.7,-61.59 13.06,-79 71.78,-148.39 147.65,-174.11z"/>
 </g>
</svg>
